<?xml version="1.0" encoding="UTF-8"?>
<svg version="1.1" viewBox="0 0 1600 955" width="318" height="190" xmlns="http://www.w3.org/2000/svg">
<path transform="translate(122,16)" d="m0 0h325l5 2 6 1 51 1 83 1 652 1h98l104-1h55l15 6 10 9 3 6 1 5 2 36 1 57v75l1 386 1 5 12 7 13 12 7 10 1 2v223l-4 5-15 9-14 9-2 33-3 8-8 10-6 4-13 4-7 1h-1367l-12-3-10-6-10-9-7-10-4-10-1-23-17-9-11-9-4-5-2-9-1-29v-106l1-71 4-12 9-10 10-8 11-7 1-377v-53l2-63 2-8 1-58 6-12 6-7 16-12z" fill="#D55656"/>
<path transform="translate(122,16)" d="m0 0h325l5 2 6 1 51 1 83 1 652 1h98l104-1h55l15 6 10 9 3 6 1 5 2 36 1 57v75l1 386 1 5 12 7 13 12 7 10 1 2v223l-4 5-15 9-14 9-2 33-3 8-8 10-6 4-13 4-7 1h-1367l-12-3-10-6-10-9-7-10-4-10-1-23-17-9-11-9-4-5-2-9-1-29v-106l1-71 4-12 9-10 10-8 11-7 1-377v-53l2-63 2-8 1-58 6-12 6-7 16-12zm92 64-9 7-2 1v2l-4 2-10 8-10 9-10 8-11 9-6 6-3 14v193l-2 64-1 82v118l2 1 1 78 3 13 5 4 6 2 22 1 1 1h84l50-1 5-1 987 3 48 1 31 2 71-1 7-4 5-7 3-9 1-19v-222l-1-39v-177l-2-31-1-37-2-13-6-16-10-13-10-10-10-8-16-13-6-4-3-4z" fill="#398090"/>
<path transform="translate(999,90)" d="m0 0h405l5 2 17 12 15 14 9 9 8 12 2 7 3 29 2 47 1 49 1 11-1 55-1 19-2 2-7-2-166-1-35-1-13-1-1-20-5-8-6-5-6-2h-375l-96 1h-326l-21 4-10 4-4 5-2 10-1 20-1 1-228-1-1-4 1-219 5-5 14-11 14-12 11-9 10-9 1-1 742-1z" fill="#EB7581"/>
<path transform="translate(133,29)" d="m0 0h192l391 1 544 2 100 1h139l13 2 8 7 1 2 2 43 1 33 1 264 1 208v315l-3 14-4 6-3 3-9 3-7 1h-183l-5-21-2-10-2-12-2-7-2-9-5-26-3-13-3-20-3-15-3-12-7-34-5-21-3-9-52-1-202-2-53-1-10-1h-152l-108 2-116 1-194 1-26 1-8 4-5 14-6 27-3 11-4 20-2 7-5 31-5 25-3 14-9 37-4 17h-181l-9-3-10-9-5-7-3-9-1-5-1-153v-32l1-111 1-8 1-48 2-172 1-321 6-10 11-11 4-2zm81 51-9 7-2 1v2l-4 2-10 8-10 9-10 8-11 9-6 6-3 14v193l-2 64-1 82v118l2 1 1 78 3 13 5 4 6 2 22 1 1 1h84l50-1 5-1 987 3 48 1 31 2 71-1 7-4 5-7 3-9 1-19v-222l-1-39v-177l-2-31-1-37-2-13-6-16-10-13-10-10-10-8-16-13-6-4-3-4z" fill="#58C6BB"/>
<path transform="translate(159,491)" d="m0 0h161l67 1 1 37 2 8 6 12 4 2 7 1 37 2h210l327-1 59-1 175-1 15-4 5-5 3-7 2-12 2-32h225v178l-3 24-1 1-9 1h-807l-281-1-119-1-29-1-1-1-52-1-5-2-2-46v-150z" fill="#F4AF66"/>
<path transform="translate(214,80)" d="m0 0h1197l5 5 17 14 14 11 11 11 9 13 6 18 1 9 1 37 2 31v177l1 39v222l-1 19-4 11-4 5-7 4-71 1-31-2-48-1-739-2-251-1-2 1-50 1h-84l-1-1-22-1-9-4-2-2-3-13-1-78-2-1v-118l1-82 2-64v-193l3-14 9-9 10-8 11-9 10-9 9-7h2v-2l6-4zm785 10-42 1-742 1-8 8-14 11-11 10-13 10-8 6-1 2-1 222 1 1 228 1 1-1 1-20 2-10 4-5 10-4 21-4h326l96-1h375l9 4 6 7 2 4 1 20 13 1 35 1 166 1 8 2 1-2 1-19 1-55-1-11-1-49-2-47-3-29-3-9-9-12-16-16-14-11-10-7-4-1zm74 235-209 1-431 1-22 2-9 2-4 2-1 3-1 11v34l1 112v37l3 12 1 2 4 1h162l654-1 5-2 3-5 2-12v-24l2-25v-46l-1-90-1-9-3-4-21-1zm-914 166-1 1v150l2 46 5 2 52 1 1 1 29 1 400 2h807l9-1 1-1 3-24v-178h-225l-2 32-3 15-5 8-8 3-9 2-175 1-59 1-327 1h-210l-37-2-7-1-4-2-7-14-1-6-1-37-67-1z" fill="#0B0709"/>
<path transform="translate(1469,35)" d="m0 0h9l4 2v2l4 1 6 4 1 3 8 7 5 4h4l3 3v14l2 10 2 2 3 14-1 16-1 8-1 19-1 32v45l-1 45v82l1 4 4-4 2-8h1l1 64 1 171 1 17v315l-3 14-4 6-3 3-9 3-7 1h-183l-5-21-2-10-2-12-2-7-2-9-5-26-3-13-3-20-3-15-3-12-7-34-5-21-3-11h8l4-10 5-3 9-2v-2l-3-1h80l23 1 64-1 7-4 4-6 3-9 1-19v-222l-1-39v-177l-2-31-1-37-2-13-6-16-4-5v-3l4-2 2-3 14-3-2-4 16-6 9-8 4-7v-21l-5-10-7-7-10-5-3-1h-14l-8 4-4 1 6-7 5-5 3-4z" fill="#58C6BB"/>
<path transform="translate(122,16)" d="m0 0h325l5 2 6 1 51 1 83 1 652 1h98l104-1h55l15 6 10 9 3 6 1 5 2 36 1 57v75l1 386 1 5 12 7 13 12 7 10 1 2v223l-4 5-15 9-14 9-2 33-3 8-8 10-6 4-13 4-7 1h-1367l-12-3-10-6-10-9-7-10-4-10-1-23-17-9-11-9-4-5-2-9-1-29v-106l1-71 4-12 9-10 10-8 11-7 1-377v-53l2-63 2-8 1-58 6-12 6-7 16-12zm11 13-13 3-8 7-7 8-4 7-1 321-2 172-1 48-1 8-1 111v32l1 153 3 11 4 7 7 8 7 5 7 2h181l8-33 5-21 6-31 4-20 4-23 4-16 3-16 4-16 5-19 4-9 7-3 26-1 310-2 108-2h152l10 1 53 1 202 2 52 1 4 14 5 22 8 38 2 8 3 16 4 24 2 9 4 19 2 9 3 14 2 7 3 16 3 13h183l10-2 7-3 5-6 3-10 1-6v-315l-1-208-1-264-2-56-1-20-7-8-6-2-9-1h-139l-100-1-935-3zm694 698-7 2 1 2 11 5 9 7 6 9 2 6v12l-3 11-7 11-8 6-11 3h-14l-13-4-9-7-4-5-4-11v-10l5-12 6-9 7-7 10-6 3-2h-183l-68 1-55 2-126 1-18 1-4 10-10 44-3 14-7 32-15 75-3 12v11l4 2 35 1h957l-5-27-4-17-4-14-6-26-7-32-7-34-3-17-7-35-94-3-52-1-232-1z" fill="#09090C"/>
<path transform="translate(643,344)" d="m0 0h192l1 2 3 1 97 1 52 1 1 6 1 22v100l-2 17-1 3-9 1h-333l-15-2v-15l1-31 1-102 2-3z" fill="#3F3233"/>
<path transform="translate(527,347)" d="m0 0 10 1 22 6 16 8 11 7 12 11 6 7 8 14 4 8 3 14v37l-3 13-7 14-8 10-10 11-12 9-17 10-13 4-16 1h-17l-15-2-7-2v-2l-6-1-14-7-10-8-7-7-6-11-6-16-6-20-1-6v-13l3-20 4-15 8-16 9-10 10-8 14-9 21-7 13-3z" fill="#403233"/>
<path transform="translate(1085,345)" d="m0 0h14l16 4 16 7 14 8 9 7 9 10 8 14 7 19 4 15v14l-3 14-7 18-9 16-7 9-6 7-14 10-17 8-3 1-11 1h-33l-21-5-14-6-11-8-7-8-6-10-6-14-6-25-1-17 2-18 5-19 8-14 9-11 10-8 18-10 10-5 14-3z" fill="#403233"/>
<path transform="translate(122,16)" d="m0 0h325l5 2 6 1 51 1 83 1 652 1h98l104-1h55l15 6 10 9 3 6 1 5 2 36 1 57v459h-1l-1-96-2-44-1-59-1-21v-283l-2 1-1 23h-1l-2-56-1-20-6-7-6-2-9-1h-139l-100-1-935-3h-192l-13 3-8 7-6 7-4 7-1 321-2 172-1 48h-1v-149l-6 7h-2l-1 6v148l-7 6-5 3-9 6-2-1 12-9 8-5 1-377v-53l2-63 2-8 1-58 6-12 6-7 16-12z" fill="#1F1B1E"/>
<path transform="translate(326,701)" d="m0 0h247l739 2 48 1v1l-62 1v2l-5 2-8 3-4 10-1 1h-60l-202-2-53-1-10-1h-152l-108 2-116 1-194 1-26 1-8 4-2 5-2-2-6 1-2-2-2-9-4-12-8-5 2-2z" fill="#5EB3B3"/>
<path transform="translate(158,415)" d="m0 0h229l1 1v67l-1 1h-200l-29-1-1-1v-26z" fill="#EB7581"/>
<path transform="translate(1241,412)" d="m0 0h33l192 1v68l-225 2-1-1v-65z" fill="#EB7581"/>
<path transform="translate(1289,164)" d="m0 0h68l35 1 10 2 4 5 2 3v80l-3 9-6 2h-63l-37-1-14-2-1-2v-14l3-66 1-14z" fill="#D55657"/>
<path transform="translate(645,356)" d="m0 0h331l1 22v17l-3 2h-17l-2-2-1-15h-2l-1 16-1 1h-7l-3-8v-2l-4-1v10l-1 1h-6v-11l2-4h-10v10l-1 5h-5l-4-10-3 6-3 3h-4l-2-13-1-2-6 1-1 14h-7l-3-7-2-1-2 6-5 3-3-1v-15h-6l-1 5v8l-3 2-4-1-5-2-1 2-8 1-2-6v-11l-4 1-2 15-2 1h-6l-1-1v-7l-3-1-6 8-4 1-2-14-1-4h-5v15l-4 3-4-1-3-9h-2l-3 9h-4l-1-1v-13l-5-1h-2l-1 15-3 2-4-4-3-7-2 4-2 5-3 2-4-1-1-1v-10l1-6-7 1-2 13-1 2h-6l-5-8h-2l-2 7-4 1-2-5 2-12h-10v9l-1 7h-4l-3-6-3-1-2 4-3 3-4-1-1-4 1-11-8 1-1 1-1 14-4 1-3-6v-2l-3 1-3 3-3 2-5-1v-13l-3-1-2 14-4 2h-10l-1-1v-28l1-8z" fill="#397F8F"/>
<path transform="translate(643,344)" d="m0 0h192l1 2 3 1 97 1 52 1 1 6 1 22v100l-2 17-1 3-9 1h-306l-6-1-1-9 10-1 91-1 4-1 1 3 7 3 16-2h53v-2h31l-1-35v-38l17 1 1 34v39h50l9 1 4 6h9l7-2 1-2h2v-2h2l2-14v-59l-5-15-4-2-1-2 5-2v-39l-264 1h-67l-2 22-1 15-4 10h-1l-1-11-2 8-1 15h-1v-68l2-3z" fill="#2E1A1E"/>
<path transform="translate(1241,361)" d="m0 0 37 1 2 3h185v38l-27 2-39 1h-158z" fill="#F3AC66"/>
<path transform="translate(158,369)" d="m0 0h206l24 1v19l-1 14-1 2-17 1-2 1h-209l-1-4v-17z" fill="#F4AF67"/>
<path transform="translate(258,252)" d="m0 0h190l189 1 65 1 202 1 322 2 1 4-1 4-4 1h-47l-207-1-153-1-74-1-475-2-9-1z" fill="#11090C"/>
<path transform="translate(200,608)" d="m0 0h76l74 1 2 4v40l-1 7h-73l-1-1-70-1-6-2-4-6v-34l1-7z" fill="#EA7480"/>
<path transform="translate(919,166)" d="m0 0h333l1 3-4 5-164 1h-859l-2-3v-3l53-1 213-1h164z" fill="#10090B"/>
<path transform="translate(918,408)" d="m0 0h32l1 1 1 80-57-1-1-39v-34h-13l-4-1 2 73-1 1-29-1-2-1-2-10-4-27v-17l2-7 2-13 4-1z" fill="#39808F"/>
<path transform="translate(86,617)" d="m0 0h3v65l-1 100 1 47v43l-9-1v-2l-6-1-13-8-3-9v-147l2-57 1-13 7-6z" fill="#3A8191"/>
<path transform="translate(1532,616)" d="m0 0 5 1 3 1v2l5 2 9 7 5 6 1 14v209l-5 4-17 10-7 1v-237z" fill="#398090"/>
<path transform="translate(1446,21)" d="m0 0h55l15 6 10 9 3 6 1 5 2 36 1 57v459h-1l-1-96-2-44-1-59-1-21v-283l-2 1-1 23h-1l-2-56-1-20-6-7-6-2-9-1h-139l-226-2v-1l-16-2-2-1-10-1-4-1h-17l-20-1-6-1v-1l283-1z" fill="#1F1C1F"/>
<path transform="translate(513,362)" d="m0 0h30l11 4 19 10 11 8 7 7 9 15 3 7 4 24-1 16-4 16-8 16-8 10-5 5-10 9-6 4-11 5-15 3h-32l-2-1 1-3h6l1-14 1-2 14 1 4 2 6-1 8-4 8-7 10-18 3-6-1-5-8-7-3-6v-5h15l2-5v-16l-4-9-6-11-7-9-6-1-6 10-4-2-7-6-4-3v-5l4-2v-9l-1-2-5-2-39-2 1-2 13-4z" fill="#FEFDF6"/>
<path transform="translate(527,347)" d="m0 0 10 1 22 6 16 8 11 7 12 11 6 7 8 14 4 8 3 14v37l-3 13-7 14-8 10-10 11-12 9-17 10-13 4-16 1h-17l-15-2-7-2v-2l-6-1-14-7-10-8-7-7-6-11-6-16-6-20-1-6v-13l3-20 4-15 8-16 9-10 10-8 14-9 21-7 13-3zm-14 15-20 5-6 3v1l39 2 5 2 1 2v9l-4 2h-2l-8-4-6-4h-2v-2l-8-2-12-1-3 2v6l-4-5-2-2-5 1-6 5-4 7v2l-6 2-5 4-4 10-4 16-2 11v15l5 19 6 15 6 11 9 11 13 10 8 4 9 2h38l15-3 14-7 11-9 5-5 9-10 8-16 4-13 2-15-1-14-3-16-8-16-7-9-10-9-18-10-13-6-4-1z" fill="#200C11"/>
<path transform="translate(228,212)" d="m0 0h685l321 1 1 3-2 3-915 1h-87l-3-2z" fill="#130B0E"/>
<path transform="translate(1085,345)" d="m0 0h14l16 4 16 7 14 8 9 7 9 10 8 14 7 19 4 15v14l-3 14-7 18-9 16-7 9-6 7-14 10-17 8-3 1-11 1h-33l-21-5-14-6-11-8-7-8-6-10-6-14-6-25-1-17 2-18 5-19 8-14 9-11 10-8 18-10 10-5 14-3zm-4 12-13 2-8 2-10 7-8 5-2 6-3-4-6 2-5 5-7 10-7 12-6 19-1 21 3 13 7 14 8 5 5 3-2 3v7l8 10 9 9 7 4 9 3 12 1h28l19-4 15-8 10-9 8-9 10-17 5-12 1-5v-31l-4-15-6-12-7-9-8-8-15-10-16-7-7-3z" fill="#1E0C12"/>
<path transform="translate(97,439)" d="m0 0h1v106l-1 58-1 111v179h-1l-2-19h-2-14l-9-4-6-2-7-6-3-7-1-5-1-29v-106l1-71 4-12 9-10 7-4 15-10 1-2v-147l2-6 6-5zm-11 178-18 11-7 6-1 13-2 57v147l3 9 13 8 6 1v2l9 1v-43l-1-47 1-100v-65z" fill="#09090C"/>
<path transform="translate(1073,325)" d="m0 0 134 1v1l-76 1-30 1h-40l-10-1h-59l-24 2-18 1-16 1-15 2-9 2h-13l-3 3 4 1 2 2 16-1 4 1v2l23 2 32 1 12 1v1h-51l-97-1-4-2v-2l-37 1h-164l4-2 36-2 7-1 15-3-1-3-10-2h-14l-3-1h-7l-17-2-136-1v-1l356-1z" fill="#B2444C"/>
<path transform="translate(1081,357)" d="m0 0h23l18 8 10 5 12 9 9 9 6 9 5 12 3 12v31l-3 9-5 12-9 14-9 10-9 8-14 7-19 4h-28l-12-1-9-3-9-6-10-10-5-7v-7l5-5 5 1 10 8 1 2v6l-3 3h-2l1 5 5 2 16 5 10 3h12l4-1 2-9-1-10 3-3 8-3 4 1 5 9 8-1 10-9 7-8 6-8 3-9-1-6-4-2-9-2-1-1 1-13 2-2 12-1 3-5v-8l-4-15-6-12-7-5-6 1-5 6-6-4-8-8-1-12-3-3v-2h-11l-11-1-18 1-3 6-2 7-6 6-5-1-4-5-1-6 5-4 10-6 6-4 16-2z" fill="#FDF9F7"/>
<path transform="translate(674,544)" d="m0 0h319l44 1 12 4h33l1-3h72v3l5 1v1l-81 1-39 1-59 1h-443l2-3-13-2v-2l26-1 47-1z" fill="#090507"/>
<path transform="translate(1e3 829)" d="m0 0h12l10 3 11 8 6 8 3 7v18l-5 12-2 3h-2l-2 5-5 4-9 4-5 1h-13l-12-5-9-6-7-8-4-12v-7l4-13 8-11 11-8z" fill="#397F8F"/>
<path transform="translate(455,852)" d="m0 0h12l9 2 10 5 6 5 7 11 2 7v13l-4 10-8 10-7 6-6 3h-18l-13-4-9-6-6-7-4-9v-14l4-9 5-9 7-8 9-5z" fill="#397F8F"/>
<path transform="translate(603,831)" d="m0 0h10l12 3 9 6 8 9 4 11v15l-5 12h-2l-2 4-9 8-9 4h-19l-12-5-9-7-4-7-3-6v-15l4-11 9-12 10-7z" fill="#397F8F"/>
<path transform="translate(1150,851)" d="m0 0h12l7 2 10 5 9 9 5 10 2 9-1 9-4 11-11 12-8 4-5 1h-14l-10-3-10-6-8-7-4-7-1-5v-10l5-12 7-10 9-8z" fill="#397F8F"/>
<path transform="translate(1037,32)" d="m0 0h223l100 1h139l13 2 8 7 1 2 2 43 1 33 1 264v191h-1l-1-171-1-59-3 6-3 1-2-4v-95l1-36v-42l1-34 1-19 2-16-1-9-2-10-2-2-2-13v-11l-1-2-2 1-7-4-7-7-3-2-1-3-9-5-1-2-12-2h-172l-69-1-191-1z" fill="#50A9A7"/>
<path transform="translate(64,869)" d="m0 0 6 1 7 3 7 2 5 3 1 10 1 2 2 13 4 10 2 7 1 3 4 2 5 6 10 5 42 2 271 1 20 1h1055l-4 2-7 1h-1367l-12-3-10-6-10-9-7-10-4-10-1-23-17-9z" fill="#283439"/>
<path transform="translate(664,407)" d="m0 0h34l12 1-1 64-1 15h-46v-42l1-37z" fill="#397F8F"/>
<path transform="translate(726,410)" d="m0 0h43l1 1 1 8v30l-3 37-2 1h-42l-1-1 1-59 1-16z" fill="#397F8F"/>
<path transform="translate(91,48)" d="m0 0h1l1 63 3 7v47l-2 33-1 11-3 80-2 13v36l1 4 7 1 2 2 1-4 1-199h1v233l-2 172-1 48h-1v-149l-6 7h-2l-1 6v148l-7 6-5 3-9 6-2-1 12-9 8-5 1-377v-53l2-63 2-8z" fill="#2A4249"/>
<path transform="translate(722,23)" d="m0 0h337l10 1 22 1h15v2h10l2 1 20 2-4 2h-126l-292-1-36-1v-2l9-1h10l18-1 2 1 1-3z" fill="#070507"/>
<path transform="translate(200,608)" d="m0 0h76l74 1 2 4v40l-1 7h-73l-1-1-70-1-6-2-4-6v-34l1-7zm83 8-73 1-2 11v21l4 1 129 1 2-3v-30l-1-1-22-1z" fill="#280F14"/>
<path transform="translate(1289,164)" d="m0 0h68l35 1 10 2 4 5 2 3v80l-3 9-6 2h-63l-37-1-14-2-1-2v-14l3-66 1-14zm7 8-2 4-1 21-1 40v19l6 1 56 1h20l23-1 2-7v-50l-1-22-1-4-8-2z" fill="#0E070A"/>
<path transform="translate(139,839)" d="m0 0h10l10 4 8 7 4 5 5 12v14l-6 11-5 5-7 5-6 2h-20l-8-4-5-6-4-7-2-8v-15l3-9 9-10 9-5z" fill="#E9737F"/>
<path transform="translate(1450,847)" d="m0 0h12l10 4 6 5 4 5 5 13v15l-6 10-7 8-8 4-3 1h-17l-10-4-5-4-4-7-2-8v-19l5-10 8-8 9-4z" fill="#2F1E22"/>
<path transform="translate(527,347)" d="m0 0 10 1 22 6 16 8 11 7 12 11 6 7 4 6v2l-8-1v5h-3l-1 2-7-11-7-7-16-10-19-9-4-1h-30l-20 5-5 2 38 2 6 3 1 2v7l-5 5-2 1v-2l-7-2-9-6v-2l-8-1-12-1-3 1 1 6h-3l-4-6-5 1-4 4h-2l-2 4-2 5-10 6-4 10-4 16-2 11v15l1 9-3-4-4-12-1-14 5-23 5-12 7-11 8-8 18-13 12-5 13-4 13-3z" fill="#0C0A0D"/>
<path transform="translate(178,369)" d="m0 0h186l22 1-2 4-9 3-5 2 2 5-1 6-2-4v-2h-2v3h-2l-3-3-1 4-6 4-7 2h-23l-22-2h-8l3 2h-20l-33-1v-3h-44l6 1v1h-10l-14-1v-3l2-1 19-1h46l3 2v-2l5 1h3l3-4 7-1 1-2-7 1-8-3-10-2-2-1v-2l17-2h82l-166-1z" fill="#F0A169"/>
<path transform="translate(808,737)" d="m0 0h8l10 3 8 6 6 7 2 5v12l-4 11-9 10-9 4h-16l-8-3-9-6-5-7-2-6v-8l3-9 5-5 8-7 9-6z" fill="#397F8F"/>
<path transform="translate(643,344)" d="m0 0h192l1 2 3 1 97 1 52 1v1l-211 1-84 1-28 1h-18l-8-2-3 1 2 4 4 4 2-5 17-1 315 1v1l-264 1h-67l-2 22-1 15-4 10h-1l-1-11-2 8-1 15h-1v-68l2-3z" fill="#1E171B"/>
<path transform="translate(1446,21)" d="m0 0h55l15 6 10 9 3 6 1 5 2 36 1 57v459h-1l-1-96-2-113-1-310-1-34-3-8-8-5-6-2-41-1-7-2-27-2-15-2-78-1v-1z" fill="#2E3D42"/>
<path transform="translate(1085,345)" d="m0 0h14l16 4 16 7 14 8 9 7 9 10 8 14 7 19 4 15v14l-3 14-5 14-4 1-4-5-3 4h-3l3-10 3-9v-31l-4-15-6-12-7-9-7-7-15-10-16-7-7-3-24-1-4-4-6-1-10 1-1-3 10-3z" fill="#0C080B"/>
<path transform="translate(1241,349)" d="m0 0 1 4 48 1 166 1 7 2 2-1 1 6v41h-1v-38l-185 1-2-3-34-1-3-2z" fill="#0F070A"/>
<path transform="translate(99,58)" d="m0 0h1v283l-1 9h-1l-2-6-7-1-2-5v-36l2-13 3-83 2-23 1-17 1-1 1-52v-51z" fill="#1F191C"/>
<path transform="translate(1527,95)" d="m0 0h1v293l1 15 1 56 1 22v78h-3-2l-1-15-1-160v-288z" fill="#08080A"/>
<path transform="translate(586,388)" d="m0 0 4 2 7 11 6 12 4 24-1 16-4 16-8 16-8 10-5 5-10 9-6 4-11 5-15 3h-32l-2-1 1-3h6l1-14 1-2 14 1 4 2 6-1 8-4 8-7 10-18 3-3h1v17l6 3 2 2 6-1 6-5 8-13 4-12 1-20v-12l-3-14-11-23z" fill="#FDFBF9"/>
<path transform="translate(1392,603)" d="m0 0h15l7 2 4 5 1 6v30l-3 9-5 4-4 1h-17l-6-7-1-5v-39l5-5z" fill="#0E080A"/>
<path transform="translate(1531,503)" d="m0 0h1l1 96 2 7 12 7 13 12-1 2-10-9-7-5-7-3-2 4 4 2-2 1-3-1-1 257 2 1-6 2v23h-1l-1-307v-48h1l1 14 3 1z" fill="#141C22"/>
<path transform="translate(639,350)" d="m0 0 10 2h16l40-1 72-1h211l1 5v41h-3l-3-8-1-20-3-1-2 3-1-15h-317l-15 1-1 5-5-3-3-4 1-3z" fill="#060406"/>
<path transform="translate(1348,603)" d="m0 0h19l7 3 3 5 1 35-2 10-8 7h-25l-5-2-4-4-1-9 4-1 5 3 3 3h17l5-3 3-9-6 2h-15l-7-9-3-7v-14l6-8z" fill="#0E070A"/>
<path transform="translate(1525,592)" d="m0 0h1v315l-3 14-4 6-3 3-9 3-7 1h-183l1-6 9-1h49l29 2h17l1-1 38-1 27-1h15l7-6 10-15 4 1v-96z" fill="#4DA4A2"/>
<path transform="translate(145,51)" d="m0 0h11l10 6 5 7 2 11-1 12-3 6-10 8-10 3-8-1-8-5-7-8-2-7v-14l5-10 6-5 5-1 3 9 4 24 3 5 2 7 1-1-1-13-4-18-3-11z" fill="#E9737E"/>
<path transform="translate(97,439)" d="m0 0h1v106l-1 58-1 111h-1l-1-104-1-2-5 2-5 3-2-1 6-5v-148l2-6 6-5z" fill="#131A20"/>
<path transform="translate(1473,54)" d="m0 0h9l6 2 6 4 5 6 2 9v11l-3 8-5 6-8 4-4 1h-11l-7-3-5-5-4-6-1-4v-15l4-8 8-7h3l4 14 4 23 3 7 2 1-4-27-4-16z" fill="#E7727D"/>
<path transform="translate(161,689)" d="m0 0 56 1 1 1 29 1 119 1v1l-47 1-4 5 5 1v1l-50 1h-84l-1-1-22-1-3-3-1-3 2-4z" fill="#220E14"/>
<path transform="translate(538,21)" d="m0 0h54l652 1v1l-522 1-3 3-30 1h-9v2h-129v-1l33-1h-11l-18-1-4-4-13-1z" fill="#2D2F33"/>
<path transform="translate(1469,46)" d="m0 0h14l10 4 10 9 5 8 1 3v21l-6 9-8 7-10 4h-17l-9-3-8-8-5-9-2-5v-14l4-9 9-10 9-6zm4 8 1 10 4 17 3 21-3-2-3-11-4-22-3-10-5 1-8 9-2 5v15l3 8 4 5 6 4 4 1h11l9-3 6-5 4-7 1-4v-11l-3-11-8-7-3-2-5-1z" fill="#0C090C"/>
<path transform="translate(99,473)" d="m0 0h1l1 61v15l2 4v6l1 1 2 15v9h-2l1 9v84l-3 30-2 16-1 19-1 1-1 156h-1l-1-153v-32l1-111 1-8 1-48z" fill="#54B0AC"/>
<path transform="translate(402,544)" d="m0 0h272v1l-74 1-47 1h-26v2h9l5 2-2 2 115 1v1h-210l-37-2-7-1-1-5z" fill="#331117"/>
<path transform="translate(1479,231)" d="m0 0h2l2 10 2 33v18l-1 33-1 18-1 25 1 55-2-1-2 3v9l1-5-1-3 2-1 1 2 1-2 1 5 1 9v15l1 15-1 11v16l-2 13h-1v-11l-1-12-1-11v-21l1-4v-4h-2v66h-1l-1-67-1-39v-109l1-53h1z" fill="#53B0AB"/>
<path transform="translate(716,377)" d="m0 0 8 1-1 14 1 2h4l1-7h4l4 7 6 1 2-15 1-1h7v16l4 1 3-2 3-9 3 2 3 8 3 1 1-1 1-13 3-3 5 1 1 1v13h4l2-8h4l2 9 6-1 1-1 1-15 5-1 2 2 1 18-25 1-19 2-17 1h-37l-4-1-24-1-1-3h-15l-9-2 1-2-2-1v-11l1-2 4 1v13l5-1 4-1 1-3h3l3 7h3l1-14 2-2h8v13l1 2 4-1 4-5 4 1 2 6h4l1-16z" fill="#1E1A1E"/>
<path transform="translate(142,45)" d="m0 0h16l8 3 9 8 6 12v15l-3 9-9 10-7 5-5 2h-16l-12-6-5-4-6-9-2-6v-15l6-12 9-8 5-3zm3 6 1 8 4 15 3 18v5l-1 1-3-8-2-4-5-29-2-4-7 2-6 7-3 7v14l3 9 8 8 10 4 9-1 8-4 8-7 2-5 1-12-2-11-6-8-9-5z" fill="#210E13"/>
<path transform="translate(139,839)" d="m0 0h10l10 4 8 7 4 5 5 12v14l-6 11-5 5-7 5-6 2h-20l-8-4-5-6-4-7-2-8v-15l3-9 9-10 9-5zm2 9 4 17 4 19v11h-6l-1-14-5-23-2-9-5 2-8 7-5 6v14l3 10h2l1 4 6 5 7 2h11l11-4 7-7 2-6 1-13-2-9-4-6-4-4-8-2z" fill="#210F14"/>
<path transform="translate(200,608)" d="m0 0h76l74 1 2 4v40l-2 6-2-1-2-8-2-3-1-28-1-1-22-1h-111l-6 2-3 3-2 3v-16z" fill="#0F070A"/>
<path transform="translate(804,729)" d="m0 0h11l9 2 10 5 8 7 6 9 2 6v12l-3 11-7 11-7 6-13 4h-14l-13-4-9-7-5-6-4-11v-10l5-12 6-9 8-8zm4 8-8 4-15 12-4 8-1 4v8l4 9 5 6 11 6 4 1h16l10-5 8-9 4-11v-12l-4-8-7-7-10-5-5-1z" fill="#08080A"/>
<path transform="translate(722,23)" d="m0 0h158l1 4-10 2 115 1v1h-270l-36-1v-2l9-1h10l18-1 2 1 1-3z" fill="#1E1319"/>
<path transform="translate(1e3 829)" d="m0 0h12l10 3 11 8 6 8 3 7v18l-5 12-2 3h-2l-2 5-5 4-9 4-5 1h-13l-12-5-9-6-7-8-4-12v-7l4-13 8-11 11-8zm0 6-12 6-9 9-6 10v14l4 7 9 8 12 5h15l10-5 8-9 3-7v-18l-4-9-8-7-8-4z" fill="#09080B"/>
<path transform="translate(148,147)" d="m0 0h1l1 53v139l-2 64-1 82h-1l-1-48-1-34v-14l-3-1v-26l1-11 1-47v-19-3-10l1-5-1-3 1-1-1-8v-4-3l1-11v-21l2 1v2h2l-1-3v-55z" fill="#4FA7A4"/>
<path transform="translate(1150,851)" d="m0 0h12l7 2 10 5 9 9 5 10 2 9-1 9-4 11-11 12-8 4-5 1h-14l-10-3-10-6-8-7-4-7-1-5v-10l5-12 7-10 9-8zm4 7-10 4-8 7v2l-3 1-6 10-1 3v11l5 9 8 7 6 3 6 1h15l10-4 8-8 4-7 1-10-1-9-6-9-7-6-12-5z" fill="#09090B"/>
<path transform="translate(603,831)" d="m0 0h10l12 3 9 6 8 9 4 11v15l-5 12h-2l-2 4-9 8-9 4h-19l-12-5-9-7-4-7-3-6v-15l4-11 9-12 10-7zm-2 7-6 3-11 9-5 7-2 6v14l4 8 6 6 9 4 4 1h16l10-4 7-7 5-8 1-5v-10l-4-11-8-8-7-4-4-1z" fill="#09080B"/>
<path transform="translate(990,364)" d="m0 0h1l2 11 3 6 2 11h2l4 4 3-4 5-9 7-8 6-7 6-4h2v2l-11 9-9 13-5 9-5 19-2 18 1 17 6 25 2 5-1 4-7-6v-2h-2v-2l-6 2-2 7h-2z" fill="#E7717D"/>
<path transform="translate(455,852)" d="m0 0h12l9 2 10 5 6 5 7 11 2 7v13l-4 10-8 10-7 6-6 3h-18l-13-4-9-6-6-7-4-9v-14l4-9 5-9 7-8 9-5zm0 6-10 6-6 6v2h-2l-6 12v14l4 8 8 7 9 3h24l6-4 7-8 5-11v-11l-4-10-9-9-8-4-4-1z" fill="#09090C"/>
<path transform="translate(1231,509)" d="m0 0h1v9l4 2 1 2 1 10 1 3-5 10-6 4-13 3h-136v-1l76-1v-3h-72l-1 2-8 1h-25l-12-4-44-1v-1l228-1 5-2 3-9z" fill="#301117"/>
<path transform="translate(877,414)" d="m0 0 17 1 1 34v39l-1 1h-14l-2-2-1-35z" fill="#3F3233"/>
<path transform="translate(470,21)" d="m0 0h68l13 1 2 4 31 1 77 1v1l-110 1-210-1 3-2h38l28-1 30-3 6-1z" fill="#1C0A10"/>
<path transform="translate(1166,466)" d="m0 0 5 5h2l-2 6-8 14-7 9-6 7-14 10-17 8-3 1-11 1h-33v-1h30v-2l-13-3-2-3-18-1-4-2h34l19-4 15-8 10-9 7-8 9-15h4l2-4z" fill="#311A1D"/>
<path transform="translate(337,940)" d="m0 0h82l2 1 821 1v1h-1113v-1l208-1z" fill="#367988"/>
<path transform="translate(91,48)" d="m0 0h1l1 63 3 7v47l-2 33-1 11-3 80-2 13h-1l-1-72v-53l2-63 2-8z" fill="#303C3F"/>
<path transform="translate(64,869)" d="m0 0 6 1 7 3 7 2 5 3 1 10 1 2 2 13 4 10 2 7 1 3 4 2 5 6 10 5 42 2 258 1v1l-81 1v1h-215l-12-5-10-8-8-9-6-12-1-3-1-23-17-9z" fill="#283439"/>
<path transform="translate(1097,33)" d="m0 0h131l69 1h172v2h2l-2 4-5 5-12 14-3 3-5 2-2-1-7-1-9-3-3-3 1-2 9-2 6-7 11-8h-127l-46-1h-59l-84-1-37-1z" fill="#59BBB3"/>
<path transform="translate(86,617)" d="m0 0h3v65l-1 100 1 47v43l-9-1v-2l-6-1-13-8-3-9v-147l1-28h1l1 148 4 22 3 9 4 8 8 4h4l2-12v-109l1-71v-44l-5-2-3-2-5 1-4 2v2l-4 3-4 25-1 15h-1v-28l1-13 7-6z" fill="#2B5A65"/>
<path transform="translate(766,486)" d="m0 0h3l1 8-1 3-17 1h-80l-6-1-1-9 10-1z" fill="#070507"/>
<path transform="translate(1e3 703)" d="m0 0h308l48 1v1l-62 1v2l-5 2-8 3-4 10-1 1h-60v-1l18-1 10-4h2v-2l2-1h6l-1-3 5-2-2-4-4-1-252-1z" fill="#4BA0A0"/>
<path transform="translate(1e3 463)" d="m0 0 1 3 3 1 2 5v3l4 2 6 6 4 1 3 6 7 9 8 8 7 4 9 3 10 2 29 1v1l-10 1 7 2 7 3v2h-35l-19-5-16-8-10-9-7-10-7-15-3-10z" fill="#0C070A"/>
<path transform="translate(952,379)" d="m0 0 3 1 1 15 4 3-7 3h-10l-21 2-23-1-10-2-17-1h-9l-6-2 4-3v-12l2-2h6l1 5v11l6-2 3-6 3 1 2 6 7 1v-14l3-2 5 1 2 10v5l5-2 3-4 2-4 3 7 1 3 5 1 1-15 7-1 3 1-2 15 6-1 1-10 4 1 3 9h7l1-16z" fill="#2E191C"/>
<path transform="translate(600,394)" d="m0 0 9 1 7 14 3 14v37l-3 13h-4l-1-7h-4l-3 6-3 1 1-7 3-13 1-16-4-24-5-10v-4h3z" fill="#0B070A"/>
<path transform="translate(503,541)" d="m0 0 10 1 25 1 478-1h68l137 1v1l-654 1h-162v-1l93-2z" fill="#B2444C"/>
<path transform="translate(608,464)" d="m0 0 4 2 1 7 2 2-6 12-8 10-10 11-12 9-17 10-8 2 2-6 1-2-7-2 18-9 11-9 4-2 2-4 9-11 6-13 1 2 3-2 3-6z" fill="#240D13"/>
<path transform="translate(140,602)" d="m0 0 5 1 2 7 1-6h1v71l-2 7-4-1-3-7-4-16-2-15v-21l2-13z" fill="#59BAB3"/>
<path transform="translate(768,485)" d="m0 0h2l1 3 7 3 16-2h53v-2h23l23 2 3 2h-8l-2 1-21 3-11 2-48 1h-54v-1h17z" fill="#1C161A"/>
<path transform="translate(1413,78)" d="m0 0h8l9 3 5 3 6 1 5 2 4 10 9 10 9 3 14 1-2 2 2 3-6 2-9 2-3 4-4 1-11-12-14-12-14-11-8-6-1-3z" fill="#56B6AF"/>
<path transform="translate(1560,627)" d="m0 0 5 5 3 5v223l-4 5-15 9-14 9-2 33-3 8-3 3 1-5 2-6 2-35 8-5 16-9 8-6v-190l-1-36-3-6z" fill="#293B41"/>
<path transform="translate(141,848)" d="m0 0h9l9 3 6 7 2 5 1 12-2 11-7 8-8 4-4 1h-11v-1h5v-2l6-1h2v-11l-6-28z" fill="#E9737E"/>
<path transform="translate(1529,230)" d="m0 0h2l1 5 1 135v229h-1l-1-96-2-113z" fill="#283439"/>
<path transform="translate(573,360)" d="m0 0 6 2 8 4 7 6v2h2v2l4 2 8 10 6 8 6 3 6 1 4 1v19l-1 3-2 34-1 7-3 4h-2l-1 4h-2l-1 3h-1l1-9 1-6v-37l-3-14-8-16-8-11-9-9-13-9z" fill="#E8727E"/>
<path transform="translate(99,58)" d="m0 0h1v279h-2l-3-12v-23l1-23 1-39v-178z" fill="#0D1116"/>
<path transform="translate(139,53)" d="m0 0 2 1 4 19 3 16 2 7-1 8-8-1-8-5-7-8-2-7v-14l5-10 6-5z" fill="#E9737E"/>
<path transform="translate(1513,35)" d="m0 0 9 2 5 5 1 4 1 34 1 310 1 60v31h-1l-1-22-1-59-1-21v-283l-2 1-1 23h-1l-2-56-1-20-7-8z" fill="#11181D"/>
<path transform="translate(1452,856)" d="m0 0h9l10 4 7 8 2 6v14l-7 11-7 6-3-1-2-13-2-6-3-19z" fill="#E8737D"/>
<path transform="translate(611,727)" d="m0 0h214l-4 2-1 1-18-1h-178l-68 1-55 2-142 1v-1l37-2 67-2z" fill="#1C2429"/>
<path transform="translate(88,682)" d="m0 0h1l1 128 3-5 1-64h1l1 5v147h-1l-2-19h-2l-9-1v-2l7 1-2-90z" fill="#182126"/>
<path transform="translate(97,439)" d="m0 0h1v29l-2 34-1 13-3 12-2 5-1 5-1 69h-1v-147l2-6 6-5z" fill="#1F1A1D"/>
<path transform="translate(1465,57)" d="m0 0h3l4 14 4 23 2 9-1 1h-11l-7-5-5-8-1-4v-15l4-8z" fill="#E8727E"/>
<path transform="translate(535,348)" d="m0 0 18 4 15 6 14 8 11 9 9 9 6 9v2l-8-1v5h-3l-1 2-7-11-7-7-11-7 2-3-3-4v-2l-6-2-27-13z" fill="#200D13"/>
<path transform="translate(197,616)" d="m0 0h1l1 6 5-5 5-1h74v1h-73l-2 32 36 1-4 2-1 3-6 1 28 1v1h-54l-6-2-4-6z" fill="#240D12"/>
<path transform="translate(976,357)" d="m0 0h1l1 9 4 2 1 4 1 16 3 8h1l1-19h1v100h-1l-1-37-2-10-1 4-2 39h-1l-1-57-5-15-4-2-1-2 5-2z" fill="#37181D"/>
<path transform="translate(1442,858)" d="m0 0h4l3 10 2 17 3 8 1 5v8l-8-1-7-4-5-6-2-6v-19l6-9z" fill="#E8727E"/>
<path transform="translate(805,377)" d="m0 0 4 1 1 4 1 15-25 1-19 2h-17l-8-1-1-3-3-1h5l2-15 1-1h7v16l4 1 3-2 3-9 3 2 3 8 3 1 1-1 1-13 3-3 5 1 1 1v13h4l2-8h4l2 9 6-1 1-1 1-15z" fill="#2D191C"/>
<path transform="translate(477,517)" d="m0 0 12 3h50l7-1h8l3 2-2 7-2 2-4 1-16 1h-17l-15-2-7-2v-2l-6-1-10-5z" fill="#0F0B0D"/>
<path transform="translate(1528,52)" d="m0 0h2l2 31 1 57v230h-1l-1-140h-2l-1-150z" fill="#283439"/>
<path transform="translate(1085,345)" d="m0 0h14l16 4v2l4 2 10 6 2 2-1 6 5 2 4 4-1 2-11-7-16-7-7-3-24-1-4-4-6-1-10 1-1-3 10-3z" fill="#0E080B"/>
<path transform="translate(1131,452)" d="m0 0h9l5 3 1 6-4 11-9 10-10 11-7 4h-5l-4-6v-3h2l2-4 13-7 4-6 2-10z" fill="#2E1C1F"/>
<path transform="translate(1393,612)" d="m0 0h13l3 2 1 3v28l-3 5h-13l-1-1-1-15v-21z" fill="#F1A965"/>
<path transform="translate(98,742)" d="m0 0h1v72l5 21 1 12v9l5 5-1 4h-2l2 3-1 3-4 2-2 16-4 2v13h-1v-161z" fill="#59BBB3"/>
<path transform="translate(1026,380)" d="m0 0v3l-9 14-5 10-5 16-1 21 3 13 7 14 10 6 3 2-3 7-1-2-5-1-7-7-2-1-3-8-4-2-3-14-1-17 2-18 5-19 3-5 5-1 1-3h3z" fill="#30191C"/>
<path transform="translate(1239,418)" d="m0 0h1l1 64h85v1l-41 1v2l-10 2-12 1 203 1v1h-224v15h-1l-1-22-1-1z" fill="#361A1F"/>
<path transform="translate(1532,616)" d="m0 0 5 1 3 1-1 2-2-1v3h-2l-1 3v199l1 37h2l2 6-2 3 1 2-7 1v-237z" fill="#2C6673"/>
<path transform="translate(326,701)" d="m0 0h45v1l-12 2-5 1 2 3-2 1v4h-3l1 8 11 2-12 6-2 5-2-2-6 1-2-2-2-9-4-12-8-5 2-2z" fill="#59BCB4"/>
<path transform="translate(304,22)" d="m0 0h51l5 1v4l-12 1 178 1v1h-201l-24-1-2-1h-15v-1l10-1 2-3z" fill="#182025"/>
<path transform="translate(151,45)" d="m0 0h7l8 3 9 8 6 12v15l-3 9-9 10-7 5-9 1 3-1v-6l7-4 6-5 2-5 1-12-2-11-5-7-9-5-11-1 5-4z" fill="#1F0D13"/>
<path transform="translate(632,431)" d="m0 0h1l2 17 1 14 1 5 2 14 4 6 6 3 12-3h14v1h-10l1 9h6v1h-27l-15-2v-15z" fill="#33191C"/>
<path transform="translate(465,377)" d="m0 0h6l2 4-3 1-2 4-2 5-10 6-4 10-4 16-2 11v15l1 9-3-4-4-12-1-14 5-23 5-12 7-11z" fill="#2F181C"/>
<path transform="translate(337,940)" d="m0 0h82l2 1 184 1v1h-476v-1l208-1z" fill="#357481"/>
<path transform="translate(1031,477)" d="m0 0 5 1 10 8 1 2v6l-3 3h-2l1 5 5 2 16 5 10 3h14l4 4h-21l-12-1-9-3-9-6-10-10-5-7v-7z" fill="#FDF8F4"/>
<path transform="translate(98,37)" d="m0 0h1l2 10v95h-1l-1-81-1 1v52l-1 51h-1l-1-47-3-7v-66l4-7z" fill="#1F1B1E"/>
<path transform="translate(643,344)" d="m0 0h192l1 2 3 1 97 1v1h-147l-5-1-28-1-100-1-13-1z" fill="#50171F"/>
<path transform="translate(1097,33)" d="m0 0h131l69 1 154 1v1l-13 1h-115l-46-1h-59l-84-1-37-1z" fill="#5ABCB4"/>
<path transform="translate(1059,23)" d="m0 0h50l57 2 5 2 13 2v1l30 1v1h-80v-1l-16-2-2-1-10-1-4-1h-17l-20-1-6-1z" fill="#10161C"/>
<path transform="translate(86,617)" d="m0 0h3v65l-1 100v46l-2-2v-80l1-71v-44l-5-2-3-2-5 1-4 2v2l-4 3-4 25-1 15h-1v-28l1-13 7-6z" fill="#2D6774"/>
<path transform="translate(888,490)" d="m0 0h65l2 7h-101v-1l11-2 21-3z" fill="#060406"/>
<path transform="translate(1115,350)" d="m0 0 5 1 19 9 14 10 7 7 1 4 2 3v3l-5-2 1 4 1 6-5-2-6-8-7-7-3-2-3-5-6-4v-6l-15-10z" fill="#2E1A1D"/>
<path transform="translate(1343,26)" d="m0 0h42l25 2 7 3v2h-55l-37-1 3-2 2-1h6v-2z" fill="#060406"/>
<path transform="translate(1489,940)" d="m0 0h18l-4 2-7 1h-229v-2z" fill="#293F45"/>
<path transform="translate(496,549)" d="m0 0h12l9 1 2 2-4 1 139 1v1h-210l-16-1v-1l28-1 3-2z" fill="#3E282A"/>
<path transform="translate(163,928)" d="m0 0h39l5 1h64l34 1v2h-181l-7-2 4-1h21z" fill="#479494"/>
<path transform="translate(486,370)" d="m0 0 40 2 6 3 1 2v7l-5 5-2 1v-2l-7-2-9-6v-2l-8-1-12-1-3 1 1 6h-3l-4-6-3-2 7-4z" fill="#2E2226"/>
<path transform="translate(624,728)" d="m0 0h63v1l-34 1-17 2h-11l-16-1-64 1-23 1h-147v-1l126-1 55-2z" fill="#2D6774"/>
<path transform="translate(1122,509)" d="m0 0 4 1v3 2l7 1-1 3-13 6-3 1-11 1h-33v-1h30v-2l-13-3-2-3-18-1-4-2h34l19-4z" fill="#220D13"/>
<path transform="translate(549,393)" d="m0 0 6 1 8 10 8 14 2 6v16l-3 5-6 1-4-2-1-8 3-7v-20l-5-5-7-2-3-3 1-5z" fill="#2E1E21"/>
<path transform="translate(64,869)" d="m0 0 6 1 7 3 7 2 5 3 1 10 1 2 2 13 4 10 2 7 1 3 4 2 5 6 10 5 36 2v1h-27l-17-2-10-8-8-9-6-12-1-3-1-23-17-9z" fill="#141E24"/>
<path transform="translate(1122,351)" d="m0 0 5 1 18 8 6 4 5 2 6 6v2h2l9 15 5 13 2 7 4 13v22l-2 12-1 3h-2l-1 2 1-7 2-11v-14l-4-15-7-19-6-11-8-10-8-7-13-8-13-7z" fill="#E56F79"/>
<path transform="translate(1151,926)" d="m0 0 15 1 11 3v2l54 1v1h-243v-1l150-1-1-2 10-3z" fill="#2D6774"/>
<path transform="translate(244,650)" d="m0 0h38l13 2v3l3 1-1 2-18 1-18-1-38-1v-1l16-2 1-2-4-1z" fill="#070406"/>
<path transform="translate(847,487)" d="m0 0h23v1h-9l-1 3-15 1-12 2-22 2h-17l-21-3-3-2 1-3 7 3 16-2h53z" fill="#2D1A1D"/>
<path transform="translate(1451,856)" d="m0 0 2 1 4 9 4 23 2 5 1 10v3l-10 1-2-2h3l-3-17-2-4-3-22-1-5-3-1z" fill="#51171F"/>
<path transform="translate(1133,435)" d="m0 0h12l1 1h9l2 2v8l-5 9-7-2-2 1-12-3-1-1 1-13z" fill="#FEFCF4"/>
<path transform="translate(659,354)" d="m0 0 317 1v1l-264 1h-67l-1 8h-1v-9l1-1z" fill="#232D32"/>
<path transform="translate(1361,611)" d="m0 0h7l3 9-1 9-4 3-7 2-6-1-4-8-1-9 2-3z" fill="#F1A865"/>
<path transform="translate(1447,848)" d="m0 0h13l-1 2-5 2-3 5-8 1-7 8-3 6-1 10v8l-3 6-2 1-2-8v-19l5-10 8-8z" fill="#200D13"/>
<path transform="translate(513,362)" d="m0 0h30l9 3-2 2-15 1-2 1-3 5-4-1-39-2 1-2 13-4z" fill="#FBF8F4"/>
<path transform="translate(716,346)" d="m0 0h40l28 1 5 1 199 1v1h-254v-2h-14z" fill="#291418"/>
<path transform="translate(122,16)" d="m0 0h84l130 1v1l-58 1-27 1h-55l-30-2-44-1z" fill="#394547"/>
<path transform="translate(632,348)" d="m0 0h1l2 11 4 4 2 5 2-2v13l-1 15-4 10h-1l-1-11-2 8-1 15h-1z" fill="#2D191C"/>
<path transform="translate(86,258)" d="m0 0h1l1 349-7 6-5 3-9 6-2-1 12-9 8-5z" fill="#4A403F"/>
<path transform="translate(1083,546)" d="m0 0h72v3l5 1v1h-86l1-2h7z" fill="#060406"/>
<path transform="translate(1432,872)" d="m0 0h1l1 17 3 8 7 6 10 4 10-1 5-4h2v3l5-3 6-9 2-4 2 1-4 8-8 9-8 4-3 1h-17l-10-4-5-4-3-5 1-6 2-3v-13z" fill="#1D1217"/>
<path transform="translate(1345,702)" d="m0 0h57l63 2-3 2-71 1-31-2-48-1v-1z" fill="#222125"/>
<path transform="translate(586,388)" d="m0 0 4 2 7 11 6 12 4 24-1 16-4 16-3 7-2-2 2-9 1-3 1-20v-12l-3-14-11-23z" fill="#FCF6F1"/>
<path transform="translate(1480,425)" d="m0 0 2 2 1-2 1 5 1 9v15l1 15-1 11v16l-2 13h-1v-11l-1-12-1-11v-21l1-4v-4h-2v66h-1v-76l2-3-1-7z" fill="#55B4AF"/>
<path transform="translate(1450,68)" d="m0 0h5l-1 4v15l3 8 5 5 4 3 15 2v1l-7 1 1 2h-8l-3 1-6-3-7-7-5-9-2-5v-14h1l1 8 2-9z" fill="#211218"/>
<path transform="translate(146,846)" d="m0 0 4 2h-9l4 12 5 24v11l-3 1-4-1-3-19-4-18-1-9-2-1 2-1z" fill="#4F181F"/>
<path transform="translate(559,458)" d="m0 0 5 2 4 4-1 6-10 19-8 9-8 5-6 1 5-4 3-3h2l-1-3 6-7 3-9 3-12 2-3z" fill="#2F1C20"/>
<path transform="translate(197,616)" d="m0 0h1l1 6 5-5 5-1h74v1h-73l-2 32-5-5-4-7-2-1z" fill="#4A191F"/>
<path transform="translate(660,378)" d="m0 0 4 1v13l5-1 4-1 1-3h3l3 7 5 1h25l3 2 10 1 18-1 1 1 8 1v2h-37l-4-1-24-1-1-3h-15l-9-2 1-2-2-1v-11z" fill="#2B191D"/>
<path transform="translate(1478,575)" d="m0 0h1v26h2l1-4 2 10v37l-2 6-2-3-2 35h-1z" fill="#4CA09F"/>
<path transform="translate(976,357)" d="m0 0h1l1 9 4 2 1 4 1 16 3 8h2v13l-2 5-2-1v-2h-2l-3-10-3-4-1-19z" fill="#1F1218"/>
<path transform="translate(1362,705)" d="m0 0h13l23 1h62l-2 2-20 2-46 1-16-2-14-3z" fill="#4CA2A3"/>
<path transform="translate(1513,35)" d="m0 0 9 2 5 5 1 4v37l-4 4h-2l-2-43-7-8z" fill="#0A090C"/>
<path transform="translate(460,927)" d="m0 0h7l7 2 3 2-2 1 64 1v1h-185v-1l95-1-1-2h5v-2z" fill="#2D6774"/>
<path transform="translate(1395,174)" d="m0 0h2l1 4 1 22v50l-1 6h-7l3-4 2-15-1-28-2-20v-14z" fill="#E16C76"/>
<path transform="translate(1501,75)" d="m0 0h1l2 6 1 2v8l-2 9-8 7-10 4h-17l-2-1 1-2h7l-1-2h8v-2l9-3 5-4 4-7z" fill="#1E0C12"/>
<path transform="translate(1200,716)" d="m0 0 7 1v2h13v1l-7 1 7 1v1h-87v-1l25-1 2-2 12-1z" fill="#54B0AC"/>
<path transform="translate(1122,728)" d="m0 0h111l32 1 2 1v2h-24l-69-2-52-1z" fill="#1F272C"/>
<path transform="translate(1159,379)" d="m0 0 4 2 8 14 5 13v2l-4-2-5-2-1 10-2-2-3-10-4-8 1-3 1 1-1-5-2-6 7 4-3-6z" fill="#220D13"/>
<path transform="translate(1080,365)" d="m0 0 22 2 4 5v9l-4-1-7-3-5-5v-2h-24l-5 3-2 3v-6l3-4z" fill="#2E1D20"/>
<path transform="translate(1531,164)" d="m0 0h1l1 51v155h-1l-1-135-1-5v-59z" fill="#3F737B"/>
<path transform="translate(1309,26)" d="m0 0h34v1h-7v2l-8 2 34 1v1h-65l-18-1v-1l26-2v-2z" fill="#10171D"/>
<path transform="translate(1460,877)" d="m0 0 3 1 3 3 3 7 4 1 3-2h-2v-2l3-2 2-3v10l-7 10-6 5-3-1-2-13-1-2z" fill="#F0A06B"/>
<path transform="translate(1133,729)" d="m0 0h41l94 3-1 4-1-2-2 1-67-2-9-1-40-1-15-1z" fill="#2C6673"/>
<path transform="translate(374,16)" d="m0 0h73v1l-7 2-4 1-20 1-41-1-1-1-9-1v-1z" fill="#3F3535"/>
<path transform="translate(1037,545)" d="m0 0h117v1l-71 1-1 2-8 1h-25l-12-4z" fill="#1D0A10"/>
<path transform="translate(1127,388)" d="m0 0 5 1 6 4 5 8 5 15 1 5v8l-3 3v-7l-3-7-2-11-5-5-14-7 2-5z" fill="#2F2125"/>
<path transform="translate(1472,52)" d="m0 0h7l2 2h-8l6 27 2 14v7l-4-2-3-11-4-22-2-10-3-1h3l1-3z" fill="#4E181F"/>
<path transform="translate(686,378)" d="m0 0h8v13l1 2 4-1 4-5 4 1 2 6 3 1-4 1h-23l-2-2 1-14z" fill="#201C20"/>
<path transform="translate(1391,614)" d="m0 0h1l2 35h14v4l3 1v3l2 1-6 2h-17l-2-7 1-3 2-1z" fill="#32141A"/>
<path transform="translate(179,68)" d="m0 0h2v15l-3 9-9 10-7 5-9 1 3-1v-6l7-4 5-4h2v2l2-1 2-13h2l2-9z" fill="#0C0A0D"/>
<path transform="translate(478,376)" d="m0 0 4 1 4 6v6l-4 3-6 2h-8l-1-1v-7l5-5z" fill="#FDF8F4"/>
<path transform="translate(894,380)" d="m0 0 5 1 2 10v5l5-2 3-4 2-4 3 7 1 3 4 2h-26l-8-1v-1h6v-14z" fill="#1F1B1E"/>
<path transform="translate(143,51)" d="m0 0h2l6 23 3 18-1 7-2-1-3-8-2-4-5-29-1-4z" fill="#50171F"/>
<path transform="translate(631,485)" d="m0 0 4 2 7 4 2 3 6 1 6-2 5-6h14v1h-10l1 9h6v1h-27l-14-2z" fill="#251D20"/>
<path transform="translate(501,372)" d="m0 0h25l6 3 1 2v7l-3 3h-4v-2l-5-2-7-6-13-4z" fill="#1D191C"/>
<path transform="translate(98,37)" d="m0 0h1l2 10v95h-1l-1-81-1 1-1 34h-1l-1-39v-17z" fill="#19252B"/>
<path transform="translate(123,29)" d="m0 0 3 1-9 5-10 10-6 11h-1v-10l-1-2v-8l10-5 11-1z" fill="#080609"/>
<path transform="translate(1106,347)" d="m0 0 9 2v2l4 2 10 6 2 2-1 6 5 2 4 4-1 2-11-7-7-3v-2l-5-3-6-8z" fill="#200E14"/>
<path transform="translate(407,547)" d="m0 0h12l6 2h23l11 1 1 3h-53l-2-1z" fill="#13171C"/>
<path transform="translate(1134,453)" d="m0 0h5l2 2 3-1 2 3-1 8-5 10-3 3h-2l-1-6z" fill="#201D20"/>
<path transform="translate(659,354)" d="m0 0h22l69 1v1l-38 1h-67l-1 8h-1v-9l1-1z" fill="#202327"/>
<path transform="translate(608,464)" d="m0 0 4 2 1 7 2 2-6 12h-2l-2-5 5-14-1-1-4 11-6 11-2-1 2-5-3 3h-2l2-6 4-9 1 2 3-2 3-6z" fill="#1F0E14"/>
<path transform="translate(1172,451)" d="m0 0 3 1 2 6 1 2-4 11-4 1-4-5-3 4h-3l3-10 2-4h3l2-5z" fill="#1F0D13"/>
<path transform="translate(320,701)" d="m0 0h2v2h-3v2l-7 1-10-1-103-1v-1z" fill="#5ABCB4"/>
<path transform="translate(116,885)" d="m0 0 4 4 3 7 5 4 5 1 13-2 12-5h2v3h3v2l-8 4-3 1h-20l-8-4-5-6-3-6z" fill="#0C090B"/>
<path transform="translate(1432,872)" d="m0 0h1l1 17 3 8 7 6 6 2-2 1v3l-7-1-10-4-3-5 1-6 2-3v-13z" fill="#4F171F"/>
<path transform="translate(987,450)" d="m0 0h1l1 10v29l-2 8h-9l1-2 3-1 1-12 2-13z" fill="#1E0A10"/>
<path transform="translate(126,90)" d="m0 0 5 5 6 5 8 3 11-1v5l1 2h-16l-3-2-11-8-4-5 1-2z" fill="#221218"/>
<path transform="translate(1155,479)" d="m0 0h2l3 3 2 1-4 7-11 10-4 2-2-1-1-4 7-7z" fill="#501921"/>
<path transform="translate(535,348)" d="m0 0 18 4 15 6 14 8 4 4-6 1-9-6v-2l-6-2-14-7-2 1 1 2-5-1-9-5z" fill="#4D171E"/>
<path transform="translate(1e3 463)" d="m0 0 1 3 3 1 2 5v3l4 2 6 6 4 1 1 4h-2l-1 3-10-3-3-4-5-15z" fill="#1D0A10"/>
<path transform="translate(1231,340)" d="m0 0h1v87l-2-4v-17l-2-33 1-15h2z" fill="#B2444C"/>
<path transform="translate(1098,487)" d="m0 0 4 1 1 2 1 17-5 4-3-1-1-19-1-2z" fill="#FEFDF6"/>
<path transform="translate(768,485)" d="m0 0h2l1 6 10 2 13 2h18l1 2-7 1h-54v-1h17z" fill="#22191C"/>
<path transform="translate(1046,370)" d="m0 0 8 1 1 1-1 11-3 3-5-1-4-5-1-6z" fill="#FEFDF5"/>
<path transform="translate(117,25)" d="m0 0h10l1 1 11 2v1l-11 2-5-1-13 2-10 4-3 2 2-4 4-5 5-3z" fill="#121A20"/>
<path transform="translate(197,616)" d="m0 0h1l1 6 5-5 1 3v16l2 6v6l-4-4-4-7-2-1z" fill="#2F191C"/>
<path transform="translate(894,488)" d="m0 0h51l7 1v1l-5 1h-51l-3-2z" fill="#211E23"/>
<path transform="translate(691,727)" d="m0 0h134l-4 2-1 1-18-1-111-1z" fill="#283439"/>
<path transform="translate(99,58)" d="m0 0h1v51l-2 8-1-4v-51z" fill="#060406"/>
<path transform="translate(99,274)" d="m0 0h1v63h-2l-3-12v-23l1-18 2 4v33z" fill="#10171D"/>
<path transform="translate(1530,65)" d="m0 0h1l1 18 1 57v20h-1l-1-15-1-4z" fill="#507475"/>
<path transform="translate(1e3 441)" d="m0 0 2 3 3 13 7 14 10 6 3 2-3 7-1-2-5-1-5-9-6-8-5-15z" fill="#301A1D"/>
<path transform="translate(981,373)" d="m0 0h1l1 21 4 10 1 1v7l-2 2-1-3h-2l-3-10-3-4v-7z" fill="#1F1A1D"/>
<path transform="translate(1471,860)" d="m0 0 4 2 5 7 3 11 1 1v8l-3 7-6 8-4 1-1-4 7-9 2-4v-14l-4-9z" fill="#39181C"/>
<path transform="translate(598,482)" d="m0 0 2 1-4 8-7 7-5 4h-2l-2 5h-2l-1 3-6 3v-4l10-10h2l2-4 8-10h3z" fill="#391D21"/>
<path transform="translate(1e3 429)" d="m0 0h1v10l3 16 5 13 9 12-1 2-8-7-3-8-4-2-3-14-1-17z" fill="#1E171A"/>
<path transform="translate(1453,87)" d="m0 0 2 4 5 8 6 4 15 2v1l-7 1 1 2h-8l-9-4-6-6-1-6z" fill="#35181C"/>
<path transform="translate(568,418)" d="m0 0h3l2 6v16l-3 5h-5v-10l3-6z" fill="#251E22"/>
<path transform="translate(1514,39)" d="m0 0 4 1 1 1v9l-4 7h-4l-3-9-1-4 1-2 7-1z" fill="#58C6BB"/>
<path transform="translate(118,860)" d="m0 0 2 1-2 3v14l2 10h2l3 5 6 4 15 2v1l-14 2-7-3v-2l-4-2-4-9-2 1-1-6 2-18z" fill="#391B20"/>
<path transform="translate(448,391)" d="m0 0 1 4-5 13-4 20-2 27-2-4v-15l3-20 4-15 4-9z" fill="#E46E78"/>
<path transform="translate(402,544)" d="m0 0 5 1 42 1-3 2h-12v2h-10l-5-2h-12l-2 4h-5l-1-5z" fill="#1C0A10"/>
<path transform="translate(74,624)" d="m0 0 2 1-4 5h-2v2l-4 3-4 25-1 15h-1v-28l1-13 7-6z" fill="#2C616E"/>
<path transform="translate(86,617)" d="m0 0h3v19l-2-1v-4l-5-2-7-3 1-3z" fill="#2C6571"/>
<path transform="translate(1054,507)" d="m0 0 10 2 10 3h14l4 4h-21l-12-1 2-2-5-3z" fill="#FCF1E4"/>
<path transform="translate(460,491)" d="m0 0 4 4 7 8v2l4 2 14 10 6 2v1l-8 1-9-3-3-7-7-6-7-10z" fill="#21181C"/>
<path transform="translate(450,486)" d="m0 0 3 1 7 11 8 11 6 6-1 2-9-7-7-7-6-11z" fill="#0F0709"/>
<path transform="translate(981,477)" d="m0 0h1l1 5v12l-5 3h-23l-3-8 4 2 2 4h9l7-2 1-2h2v-2h2z" fill="#20191C"/>
<path transform="translate(632,348)" d="m0 0h1v36h2v-5l2-1v13l-3 10-1 15h-1z" fill="#50171F"/>
<path transform="translate(1385,26)" d="m0 0h27l12 2 3 2 12 2v1h-22v-2l-5-1-4-1-23-2z" fill="#10171D"/>
<path transform="translate(836,378)" d="m0 0 4 1v18h-9v-2h2v-11l2-5z" fill="#231E21"/>
<path transform="translate(1518,475)" d="m0 0h1l3 12v10l-1 7-1 1-1 10h-1l-2-27z" fill="#5ABCB4"/>
<path transform="translate(1430,855)" d="m0 0 2 1-1 4-4 7-3 1-1 2-1 15-2-2-1-11 1-10z" fill="#59BBB3"/>
<path transform="translate(449,546)" d="m0 0h30l2 2-3 1-37 1h-7v-2l12-1z" fill="#060406"/>
<path transform="translate(827,727)" d="m0 0h63v1l-55 1-3 2-2 3-9-3v-3z" fill="#2B555F"/>
<path transform="translate(1026,380)" d="m0 0v3l-9 14-3 1-2 4-3 1-1-1v-6l2-4 5-1 1-3h3z" fill="#21191C"/>
<path transform="translate(398,340)" d="m0 0h1v36l-1 10h-1l-1-5v-34z" fill="#DB6772"/>
<path transform="translate(1117,382)" d="m0 0h6l5 5-6 7-3 2-4-8 1-5z" fill="#FEFAF1"/>
<path transform="translate(661,487)" d="m0 0h14v1h-10l1 9h6v1l-22-1 1-2 5-2z" fill="#1D191C"/>
<path transform="translate(486,359)" d="m0 0 3 1 1 6-7 3-12 2 1-3z" fill="#23181B"/>
<path transform="translate(609,466)" d="m0 0 2 3-5 14 2 5-4 6-5-3-1-2 8-15z" fill="#2F191C"/>
<path transform="translate(142,45)" d="m0 0h9l1 2-11 6h-8l-2-4 5-3z" fill="#0A080A"/>
<path transform="translate(805,377)" d="m0 0 4 1 1 4v13l-1-2h-5l-1-1v-14z" fill="#09090B"/>
<path transform="translate(146,147)" d="m0 0h2v53h-2l-1-9z" fill="#5ABCB4"/>
<path transform="translate(1241,349)" d="m0 0 1 4 48 1v1l-39 1v2l-2 1h-8z" fill="#301A1E"/>
<path transform="translate(1432,870)" d="m0 0 1 2-1 10v8l-3 6-2 1-1-7 1-13 3-6z" fill="#2E191C"/>
<path transform="translate(746,379)" d="m0 0h7l-1 10-1 5-5-2-2 2v-8z" fill="#1D0E14"/>
<path transform="translate(112,892)" d="m0 0 5 2h3l5 6 7 3-3 2h-7l-6-4-3-3z" fill="#56B4AE"/>
<path transform="translate(530,386)" d="m0 0h3l2 7 6 4 3 1 1 3-2 3-4-2-7-6-4-3v-5z" fill="#FDF6EF"/>
<path transform="translate(923,381)" d="m0 0 8 1-1 4-2 10-1-3h-4l-2 3v-14z" fill="#0A0B0D"/>
<path transform="translate(1115,350)" d="m0 0 5 1 19 9 10 7-2 1-8-3-8-5-12-6z" fill="#4A171E"/>
<path transform="translate(550,353)" d="m0 0 7 3 14 7-2 2 4 3-5-1-18-9-2-4z" fill="#2E191C"/>
<path transform="translate(1059,23)" d="m0 0h48l-2 1-1 2h-19l-20-1-6-1z" fill="#11171D"/>
<path transform="translate(686,378)" d="m0 0h8v11l-2 4-2-4-5-2v-8z" fill="#09080B"/>
<path transform="translate(1237,30)" d="m0 0h28l32 2v1h-37l-19-1z" fill="#192227"/>
<path transform="translate(176,690)" d="m0 0h41v1l-6 1-1 2h-7l-5 1v-2l-3-1-8 1-11-2z" fill="#37181C"/>
<path transform="translate(320,701)" d="m0 0h2v2h-3v2l-7 1-10-1v-2h-32v-1z" fill="#4B9DA0"/>
<path transform="translate(1240,361)" d="m0 0 1 4-1 39h-1l-1-27h-2v-7l1-8z" fill="#2B1116"/>
<path transform="translate(176,93)" d="m0 0 4 1-2 6-9 8h-5l2-5 8-7z" fill="#56B5AF"/>
<path transform="translate(777,379)" d="m0 0 5 1 1 1v7l-2 5h-2l-3-3-1 2v-12z" fill="#0D080B"/>
<path transform="translate(469,370)" d="m0 0h7v8l-4 2-1-2h-6l-5 3-2-1z" fill="#200B11"/>
<path transform="translate(1031,364)" d="m0 0h2v2l-11 9-9 13-3 6-2-2 1-4 6-8 8-10z" fill="#E36E78"/>
<path transform="translate(584,370)" d="m0 0 4 1 8 7 4 5-1 2-4-1-13-13z" fill="#2E181B"/>
<path transform="translate(145,50)" d="m0 0h20l6 5-1 4-2 2-5-5-7-4-11-1z" fill="#30181C"/>
<path transform="translate(611,469)" d="m0 0 2 4 2 2-6 12h-2l-2-5 5-12z" fill="#220C12"/>
<path transform="translate(563,462)" d="m0 0 4 1 1 5-7 14h-1l1-16z" fill="#24252A"/>
<path transform="translate(763,385)" d="m0 0 3 2 3 8v3h-10v-3z" fill="#1F1A1E"/>
<path transform="translate(118,853)" d="m0 0 2 1-1 6-2 3-2 18-2-2v-15l3-9z" fill="#160D11"/>
<path transform="translate(1533,884)" d="m0 0h1v15l-1 17-3 8-3 3 1-5 2-6 1-19z" fill="#376E78"/>
<path transform="translate(506,517)" d="m0 0 17 1 16 2v1h-32l-2-1z" fill="#F8D4B4"/>
<path transform="translate(1295,173)" d="m0 0h6l-3 2-2 23-1 14h-1v-36z" fill="#E36E78"/>
<path transform="translate(1560,864)" d="m0 0 1 3-22 13-5 4-1 8h-1v-11l8-5 16-9z" fill="#2B464E"/>
<path transform="translate(952,379)" d="m0 0 3 1 1 15 1 2-7 1 1-18z" fill="#201A1E"/>
<path transform="translate(751,389)" d="m0 0h1l2 7 1 2-5 1h-8l-1-3-3-1h5l1-2 4-2 2 2z" fill="#201E21"/>
<path transform="translate(739,397)" d="m0 0 11 2v2h-27l1-3z" fill="#2E191C"/>
<path transform="translate(863,380)" d="m0 0h6l1 5-2 6h-5l-2-5 1-5z" fill="#1C0F15"/>
<path transform="translate(217,691)" d="m0 0 30 1v1l-16 1-2 2-9 1-4-2z" fill="#3A1B1F"/>
<path transform="translate(126,90)" d="m0 0 5 5 6 5v3l1 2-6-2-8-7-1-4h2z" fill="#34181C"/>
<path transform="translate(86,575)" d="m0 0h1l1 32-7 6-5 3-9 6-2-1 12-9 8-5z" fill="#365E67"/>
<path transform="translate(637,349)" d="m0 0h6l1 2-8 1 2 4 5 5-1 9-3-4-3-6h-2v-9z" fill="#1D0A10"/>
<path transform="translate(53,637)" d="m0 0h1v10l-1 13-1 26h-1v-42z" fill="#2F4248"/>
<path transform="translate(1309,927)" d="m0 0h1l1 7h-47v-1l39-1 1-2h5z" fill="#2D6774"/>
<path transform="translate(910,386)" d="m0 0 3 3 2 7 4 2h-15l3-5z" fill="#201D21"/>
<path transform="translate(1293,235)" d="m0 0h1l1 14 2 4 4 1 7 1v1h-16v-19z" fill="#DC6873"/>
<path transform="translate(314,925)" d="m0 0h1l1 7-1 1h-46v-1l38-1 4-2 2 1z" fill="#10171D"/>
<path transform="translate(821,386)" d="m0 0 1 2h2v8l-2 1h-9l6-8z" fill="#251C20"/>
<path transform="translate(1432,904)" d="m0 0 5 1 6 3 5 1v-3l12 1h2v2l-3 1-16 1-8-4z" fill="#291C20"/>
<path transform="translate(1477,889)" d="m0 0 2 1-7 10-6 5-3-1-1-13 3 3v4l4 1 3-1 2-4z" fill="#E3737A"/>
<path transform="translate(133,849)" d="m0 0h2l-1 4-4 2h-2l-7 7-2 6v14l-2-4v-14l9-10z" fill="#CF575B"/>
<path transform="translate(535,348)" d="m0 0 18 4 1 2-5 1 1 2-5-1-9-5z" fill="#4E171E"/>
<path transform="translate(872,337)" d="m0 0h6l3 3h5v3l-3 1v-2l-4 2h-6v-2l-3-1z" fill="#D65757"/>
<path transform="translate(785,727)" d="m0 0h40l-4 2-1 1-18-1-17-1z" fill="#171E24"/>
<path transform="translate(486,367)" d="m0 0h4v2l-9 6h-3v2l-3-1v-5l3-2z" fill="#070608"/>
<path transform="translate(1486,32)" d="m0 0h22l12 2 5 4-1 2-4-3-21-3-13-1z" fill="#141A20"/>
<path transform="translate(1105,514)" d="m0 0h8l-2 2-4 1h-38l-4-2h34z" fill="#4C443E"/>
<path transform="translate(982,388)" d="m0 0 3 1 2 7h2v13l-6-12z" fill="#1D0A10"/>
<path transform="translate(774,382)" d="m0 0h1l1 8 3 1v2h2l1-4 1 8-6 1-4-1z" fill="#201F22"/>
<path transform="translate(198,609)" d="m0 0 2 4 4-1 2 4 3 1-6 2-3 3-2 3z" fill="#1E0B11"/>
<path transform="translate(1253,384)" d="m0 0 2 1-2 8 4 1v5l3 1v2l2 1-5-1-4-5-3-5v-6z" fill="#F2A56A"/>
<path transform="translate(1154,498)" d="m0 0h2l-2 4-4 5-10 7-3-1h2l1-3 4-1v-3l5-3z" fill="#270F15"/>
<path transform="translate(465,377)" d="m0 0h6l2 4-3 1-2 4-2 3-2-8h-3v-2z" fill="#221F23"/>
<path transform="translate(491,357)" d="m0 0 4 1 1 1v5l-5 5-2-3-1-6z" fill="#1E0B11"/>
<path transform="translate(660,378)" d="m0 0 4 1v8l-1 4h-4v-11z" fill="#181417"/>
<path transform="translate(716,377)" d="m0 0 8 1-1 5-2 2-4-2-3 3v-8z" fill="#110E11"/>
<path transform="translate(324,807)" d="m0 0 4 5 1 9-1 6h-1l-1-5-2-2z" fill="#55B4AE"/>
<path transform="translate(876,410)" d="m0 0h15l-3 3 5 1v1h-12l-4-1z" fill="#2D6774"/>
<path transform="translate(928,388)" d="m0 0h1v9l3 1-10 1-2-1v-6h3l4 1z" fill="#212023"/>
<path transform="translate(790,385)" d="m0 0 3 1 1 9-1 1h-6l2-10z" fill="#1A161A"/>
<path transform="translate(1044,373)" d="m0 0h1l2 7 3 2h2l-1 4-5-1-4-5-1-6z" fill="#FDF7F2"/>
<path transform="translate(578,885)" d="m0 0 2 1v2l4 2 8 6-2 3-9-6-2-2z" fill="#11161B"/>
<path transform="translate(1115,490)" d="m0 0 8 1v2l-7 4h-5l-1-4h3l1-2z" fill="#242226"/>
<path transform="translate(803,392)" d="m0 0 6 1 2-1v5h-18l2-4v2l6-1z" fill="#231D21"/>
<path transform="translate(1479,446)" d="m0 0h2l1 7-1 1v21l1 7h-3z" fill="#59C7BC"/>
<path transform="translate(1e3 429)" d="m0 0h1v10l1 16-2 1-2-14v-8z" fill="#251116"/>
<path transform="translate(936,386)" d="m0 0 4 1 2 6-1 4h-6z" fill="#211F22"/>
<path transform="translate(124,895)" d="m0 0 5 1 7 2 10 1v1l-14 2-7-3z" fill="#2A0F15"/>
<path transform="translate(1036,371)" d="m0 0h4l1 9-4-4-6 2-4 2 2-4z" fill="#291A1D"/>
<path transform="translate(1397,238)" d="m0 0h1v18h-7l3-4 2-13z" fill="#ED7783"/>
<path transform="translate(1484,871)" d="m0 0 3 3v15h-3l-1-9z" fill="#212027"/>
<path transform="translate(821,728)" d="m0 0h14l-3 3-2 3-9-3z" fill="#2F6774"/>
<path transform="translate(448,391)" d="m0 0 1 4-5 13-1 5-2-1 1-8 4-11z" fill="#E16B76"/>
<path transform="translate(684,380)" d="m0 0h1v7l5 1 5 5v2l-4-1v-2h-6l-1 2z" fill="#12191F"/>
<path transform="translate(836,378)" d="m0 0 4 1v9l-2 3-3-6h-1v-5z" fill="#1F1319"/>
<path transform="translate(1362,705)" d="m0 0h13l16 1v1l-12 1-5 1-12-3z" fill="#439296"/>
<path transform="translate(746,379)" d="m0 0h7l-1 10-2 2-1-7h-3z" fill="#0D0C0F"/>
<path transform="translate(150,885)" d="m0 0h1l1 12-5 2h-11v-1h5v-2l6-1h2z" fill="#BE4A4F"/>
<path transform="translate(524,373)" d="m0 0 7 1 2 3v7l-2 1-3-9-6-1z" fill="#161215"/>
<path transform="translate(1452,856)" d="m0 0h6v2h2l-1 4v3l-2 2-5-10z" fill="#EEA07B"/>
<path transform="translate(1e3 416)" d="m0 0h2v22l-2 1v-9h-1v-8z" fill="#29191D"/>
<path transform="translate(402,544)" d="m0 0 5 1v3l-2 4h-5l-1-5z" fill="#260E14"/>
<path transform="translate(1230,493)" d="m0 0h1v32h-1l-1-14-1-1v-10z" fill="#B2444C"/>
<path transform="translate(862,388)" d="m0 0 2 2h3l2-2v9l-5-1-3-2z" fill="#1F1B1E"/>
<path transform="translate(98,243)" d="m0 0 2 1v2h-2v35l-2 2 1-39z" fill="#10171D"/>
<path transform="translate(1540,609)" d="m0 0 9 6 10 9v3l-10-9-9-7z" fill="#304950"/>
<path transform="translate(460,491)" d="m0 0 4 4 7 8v2l4 2 1 2-4-1-5-5-6-8z" fill="#28191C"/>
<path transform="translate(448,858)" d="m0 0 5 1-5 4-8 6v-4z" fill="#0F151A"/>
<path transform="translate(894,380)" d="m0 0 5 1v8l-2-3-5 1-1-5z" fill="#1E0E14"/>
<path transform="translate(119,89)" d="m0 0 3 3v2h2l5 6 11 6-4 1-11-7-6-8z" fill="#100D10"/>
<path transform="translate(574,702)" d="m0 0h11l6 1-1 2-12 1z" fill="#5ABCB4"/>
<path transform="translate(978,882)" d="m0 0 8 6 2 3h-2l-1 2-7-6-1-3z" fill="#0E1216"/>
<path transform="translate(977,486)" d="m0 0h2v3h-2v2h-2l-1 3-7 1 1-2h2l1-3z" fill="#283439"/>
<path transform="translate(1183,442)" d="m0 0 1 2-2 12-1 3h-2l-1 2 1-7 2-11z" fill="#DF6973"/>
<path transform="translate(1501,75)" d="m0 0h1v17l-2 5-3 1v-4l3-8z" fill="#42171D"/>
<path transform="translate(859,395)" d="m0 0h5l5 1h6l-3 3h-9l-6-2z" fill="#2D1B1E"/>
<path transform="translate(477,383)" d="m0 0 4 1v3l-4 3-5-1 2-4z" fill="#FEFEF8"/>
<path transform="translate(981,477)" d="m0 0h1v8l-3 9-7 1 3-4h2v-2h2z" fill="#2E191C"/>
<path transform="translate(783,395)" d="m0 0 10 1v1l-14 2h-10l2-3 12 1z" fill="#2D1B1E"/>
<path transform="translate(1009,468)" d="m0 0 4 2 7 10-1 2-8-7z" fill="#1F1A1D"/>
<path transform="translate(638,363)" d="m0 0 2 3 1 2 2-2v13l-4-5z" fill="#1F1A1D"/>
<path transform="translate(838,335)" d="m0 0 4 1 1 4-2 2-5-1v-5z" fill="#D65757"/>
<path transform="translate(148,90)" d="m0 0 2 1 2 7 2-1 2 5-7 1-1-4 1-3z" fill="#C24C50"/>
<path transform="translate(1127,910)" d="m0 0 11 7 2 2-7-1-7-6z" fill="#2C616D"/>
<path transform="translate(176,690)" d="m0 0h20l-1 2-8 1-11-2z" fill="#2E191C"/>
<path transform="translate(481,516)" d="m0 0 8 1 6 2v1l-8 1-7-3z" fill="#17151B"/>
<path transform="translate(1054,507)" d="m0 0 10 2 2 4-8-1z" fill="#FCF4EC"/>
<path transform="translate(64,869)" d="m0 0 5 1v2l6 2 8 4v2l-6-2-12-7z" fill="#284148"/>
<path transform="translate(674,387)" d="m0 0h3l3 8-4-1-5-2v-2h2z" fill="#0F1216"/>
<path transform="translate(1026,380)" d="m0 0v3l-9 14-2 1 2-5 4-8z" fill="#2B191C"/>
<path transform="translate(952,379)" d="m0 0 3 1v14l-2-3-1-2z" fill="#070507"/>
<path transform="translate(1481,97)" d="m0 0h1v5h6l-3 2-4 1h-11v-1l7-1 2-2 2 1z" fill="#C24C51"/>
<path transform="translate(685,392)" d="m0 0h6v2l6 1v1h-12l-2-2h2z" fill="#1E191D"/>
<path transform="translate(1309,927)" d="m0 0h1l1 7h-10l3-4h5z" fill="#2C606C"/>
<path transform="translate(141,848)" d="m0 0h9v1l-5 1 1 7-2 3z" fill="#D36C5C"/>
<path transform="translate(407,547)" d="m0 0h12l-2 1-1 2-9 1z" fill="#1E191D"/>
<path transform="translate(511,504)" d="m0 0h1v13h-6l1-3 2-1z" fill="#2A181B"/>
<path transform="translate(1402,486)" d="m0 0 9 1 2-1 3 1-1 2h-15l-1-2z" fill="#1D0A10"/>
<path transform="translate(879,388)" d="m0 0 3 1 1 6-8 1z" fill="#1F191D"/>
<path transform="translate(663,489)" d="m0 0 2 1 1 7h6v1h-9l-2-1z" fill="#15161C"/>
<path transform="translate(446,474)" d="m0 0 3 3 2 5-1 6-2-3-2-6z" fill="#190A0D"/>
<path transform="translate(1047,354)" d="m0 0h3v2l-13 7-3-1 8-5 5-1z" fill="#E26B75"/>
<path transform="translate(1e3 463)" d="m0 0 2 3 3 8-1 4-3-5z" fill="#120A0D"/>
<path transform="translate(441,458)" d="m0 0 2 2 3 9-1 4-2-3-2-6z" fill="#15070B"/>
<path transform="translate(1014,382)" d="m0 0 1 3-5 9-2-2 1-4z" fill="#DF6A74"/>
<path transform="translate(584,378)" d="m0 0 8 6 1 3-5-2-5-5z" fill="#1F1A1D"/>
<path transform="translate(574,378)" d="m0 0 5 2 6 5v2l-5-2-6-5z" fill="#FDF8F3"/>
<path transform="translate(1085,510)" d="m0 0 4 1-3 2h-12v-2z" fill="#322E32"/>
<path transform="translate(769,494)" d="m0 0 7 3v1h-24v-1h17z" fill="#1D0A10"/>
<path transform="translate(952,489)" d="m0 0 4 2 2 4 8 1v1h-11z" fill="#24181B"/>
<path transform="translate(989,477)" d="m0 0h1l1 7 1 2-3 10h-1z" fill="#D56069"/>
<path transform="translate(921,389)" d="m0 0h6l1 1v6l-1-3h-4l-2 3z" fill="#1D0A10"/>
<path transform="translate(1065,357)" d="m0 0h16l-3 2-12 1z" fill="#363237"/>
<path transform="translate(172,79)" d="m0 0h1l1 11-2 5h-2l-1-3 2-5z" fill="#2B1116"/>
<path transform="translate(1538,877)" d="m0 0m-2 1h2v3l-4 3-1 8h-1v-11z" fill="#283A40"/>
<path transform="translate(1052,509)" d="m0 0 5 1 7 3v1l-10-1-3-2z" fill="#FFFFF8"/>
<path transform="translate(1481,421)" d="m0 0 1 2-2 4 1 6-3 3v-11z" fill="#59C7BC"/>
<path transform="translate(1130,390)" d="m0 0 6 1 3 4-3 1-5-2z" fill="#251F22"/>
<path transform="translate(730,386)" d="m0 0 3 1 2 4-1 3-3-2-2 1v-6z" fill="#0A0A0D"/>
<path transform="translate(145,50)" d="m0 0h12l7 3 1 3-5-2-4-2-11-1z" fill="#4E1920"/>
<path transform="translate(118,853)" d="m0 0 2 1-1 6-4 1 1-6z" fill="#0B080B"/>
<path transform="translate(763,385)" d="m0 0 3 2 2 8-3-3-3-1v-5z" fill="#1A1216"/>
<path transform="translate(535,348)" d="m0 0 12 3-3 2-4-2-1 2-4-4z" fill="#3C181D"/>
</svg>
