<?xml version="1.0" encoding="UTF-8"?>
<svg version="1.1" viewBox="0 0 1600 1061" width="4630" height="3072" xmlns="http://www.w3.org/2000/svg">
<path transform="translate(264,136)" d="m0 0 196 1h880l11 2 11 6 6 8 4 11 1 190 1 250 3 7 7 8v35l-1 134-5 3-2 1-1 4-1 49-3 10-6 8-7 6-7 3-6 1-147 1-5 5-8 4-23 2-27 1-88 1h-607l-23-1-9-7-3-4v-2h-145l-9-2-10-6-7-9-3-7-1-5-1-53-6-2-3-3v-166l9-11 1-5 1-83 1-272 1-86 4-11 7-8 9-6zm537 270 3 9 5 20 3 20 1 10v26l-3 22-5 21-3 8v3h100l-2-5-6-14-4-15-2-14v-31l3-19 4-14 6-16 5-11zm-247 23-12 5-9 6-5 5-2 5 5 6-2 4-5 5-8-4-2 3-3 16 1 14 7 1 2 6-5 2-2 2 1 6 6 10 8 7 5-5 2-3 7 2-3 8v5l10 3h18l8-2 2-4-2-7 5-3 4 1 4 6 7-3 9-8 8-15 4-12v-18l-4-13-3-5-5 1-4 2-5-4 1-4 4-5-2-6-8-6-11-4h-10v12h-9l-5-12zm483 0-12 2-10 5-1 4 4 8v5l-3 3-4-2-3-4-5 1-5 5-6 10-3 11v4l9 1 1 11-10 2 1 9 5 10 9 10h4l3-4 4 1 5 5-3 6 1 3 12 5 5 1h14l4-2 1-7 6-1 3 5 8-1 10-5 7-8 2-4-1-4-6-6 2-6 12 1 3-8 1-12-2-12-2-3-6 1-5 1-2-7 9-5-1-5-11-12-10-7-7-1-6 11-9-2v-12l-1-1zm-73 363-9 3-6 4-5 8-1 3v13l5 9 8 6 5 2h11l9-4 7-8 2-5 1-7-2-9-5-8-10-6zm-328 1-8 4-6 7-3 8v9l3 8 5 6 10 5h12l10-5 6-8 2-6v-9l-4-9-4-5-9-5zm434 17-10 5-7 8-3 9v8l3 9 6 8 9 5 4 1h10l10-4 7-7 4-9v-13l-5-10-8-7-7-3zm-544 2-9 3-9 8-4 8-1 5v7l4 11 5 6 9 5 2 1h15l8-4 5-4 5-8 2-8-1-10-5-10-7-6-10-4z" fill="#191919"/>
<path transform="translate(338,198)" d="m0 0h930l10 8 16 15 13 13 1 2 1 92v256l-1 1-29 1h-180l-160 1h-75l-481-2-87-1-1-12v-95l1-95 1-45 1-103 12-12 8-7 13-12zm463 208 3 9 5 20 3 20 1 10v26l-3 22-5 21-3 8v3h100l-2-5-6-14-4-15-2-14v-31l3-19 4-14 6-16 5-11zm-247 23-12 5-9 6-5 5-2 5 5 6-2 4-5 5-8-4-2 3-3 16 1 14 7 1 2 6-5 2-2 2 1 6 6 10 8 7 5-5 2-3 7 2-3 8v5l10 3h18l8-2 2-4-2-7 5-3 4 1 4 6 7-3 9-8 8-15 4-12v-18l-4-13-3-5-5 1-4 2-5-4 1-4 4-5-2-6-8-6-11-4h-10v12h-9l-5-12zm483 0-12 2-10 5-1 4 4 8v5l-3 3-4-2-3-4-5 1-5 5-6 10-3 11v4l9 1 1 11-10 2 1 9 5 10 9 10h4l3-4 4 1 5 5-3 6 1 3 12 5 5 1h14l4-2 1-7 6-1 3 5 8-1 10-5 7-8 2-4-1-4-6-6 2-6 12 1 3-8 1-12-2-12-2-3-6 1-5 1-2-7 9-5-1-5-11-12-10-7-7-1-6 11-9-2v-12l-1-1z" fill="#EE915D"/>
<path transform="translate(407,215)" d="m0 0h58l548 1h104l139 1 22 22v120l-3 7-1 1h-910l-7-2-16-15-5-6v-82l1-46z" fill="#FCFCFC"/>
<path transform="translate(630,382)" d="m0 0h426l20 3 12 4 15 8 10 8 9 9 9 13 6 12 6 22 1 8v9l-2 16-3 12-4 9-6 11-10 13-11 10-9 6-16 8-9 3-12 2h-524l-16-3-12-5-11-6-10-8-10-10-10-14-7-16-4-16-1-7v-26l10-25 9-15 11-12 7-7 11-7 2 1-3 3-5 3-5 6 12-7 11-6 14-4 9-1 200-1-110-2zm171 24 3 9 5 20 3 20 1 10v26l-3 22-5 21-3 8v3h100l-2-5-6-14-4-15-2-14v-31l3-19 4-14 6-16 5-11zm-247 23-12 5-9 6-5 5-2 5 5 6-2 4-5 5-8-4-2 3-3 16 1 14 7 1 2 6-5 2-2 2 1 6 6 10 8 7 5-5 2-3 7 2-3 8v5l10 3h18l8-2 2-4-2-7 5-3 4 1 4 6 7-3 9-8 8-15 4-12v-18l-4-13-3-5-5 1-4 2-5-4 1-4 4-5-2-6-8-6-11-4h-10v12h-9l-5-12zm483 0-12 2-10 5-1 4 4 8v5l-3 3-4-2-3-4-5 1-5 5-6 10-3 11v4l9 1 1 11-10 2 1 9 5 10 9 10h4l3-4 4 1 5 5-3 6 1 3 12 5 5 1h14l4-2 1-7 6-1 3 5 8-1 10-5 7-8 2-4-1-4-6-6 2-6 12 1 3-8 1-12-2-12-2-3-6 1-5 1-2-7 9-5-1-5-11-12-10-7-7-1-6 11-9-2v-12l-1-1z" fill="#181818"/>
<path transform="translate(296,585)" d="m0 0 12 1 80 2h56l84 1 48 1 127-1 275 1 47 1h45l26-1 164-1h48l1 22 1 64h-1015z" fill="#A39993"/>
<path transform="translate(338,198)" d="m0 0h930l10 8 16 15 13 13 1 2 1 92v53l-11-1h-256l-16 1-4 1-335 1 53 1 85 1v1l-285 1-12 2-13 4-18 10-4 2 3-5 5-5 5-3 4-4 10-5 9-2-3-1-157-1h-65l-7 1v-43l1-103 12-12 8-7 13-12zm69 17-70 1-1 61v67l7 8 7 7 9 7 5 1h910l3-4 1-4v-120l-22-22-139-1h-113l-539-1z" fill="#A39993"/>
<path transform="translate(671,414)" d="m0 0h1v5l21 2 26 2 4 1h74l5 2 4 4v-8l2 4 4 21 2 18v26l-3 22-5 21-4 11h100l-8-16-4-14-3-18v-31h1l1 29 1-16 5-4h5l5 3 2-9 3-9 4-2v10h8l5-1 1-18 2-1 1 2v80l-2 2-4-5-5-1 4 15-1 4 6 1 4 2-1 4-2 2h-259l-2-2 1-5v-25h-2v-99h1z" fill="#424242"/>
<path transform="translate(304,378)" d="m0 0h65l157 1 7 1-4 2-11 3-15 8-11 8-12 12-9 14-7 14-5 15-1 1-1 20h-2l1 5v11l-1 3-136 1-23-1-1-19 1-95 3-3z" fill="#EE915D"/>
<path transform="translate(264,136)" d="m0 0 196 1h880l11 2 4 3-76-1-1-1h-682l1 1h46l7 2 4-1 5 2v-2h5l1 2 3 2h-390l5 3h24l45 1 249 1h192l474 1-5 4v-3l-14 2-11 1-5 1-17-1-6-1-4 1h-5v-1h-7l-1 1h-6l-4-1-2 1v-2h-5v2l-206 1h-684l-9-10-5-2h-15l-9 3h-2l-5 3-2 1 2-4 9-8 8-3z" fill="#444443"/>
<path transform="translate(439,690)" d="m0 0h725l-6 12h-713z" fill="#A39993"/>
<path transform="translate(407,877)" d="m0 0h784l2 2-8 4-23 2-27 1-88 1h-607l-23-1-9-7z" fill="#1E1E1E"/>
<path transform="translate(1152,457)" d="m0 0h157v41l-8 1h-154l-2-1 2-16 3-21z" fill="#E44139"/>
<path transform="translate(296,456)" d="m0 0h155l3 2v11l1 1 1 19-1 7-136 1-23-1-1-19z" fill="#E34139"/>
<path transform="translate(929,448)" d="m0 0 2 2v80l-2 2-4-5-5-1 4 15-1 4 6 1 4 2-1 4-2 2h-259l-2-2v-3l7-3h125l1-2 100 1-8-16-4-14-3-18v-31h1l1 29 1-16 5-4h5l5 3 2-9 3-9 4-2v10h8l5-1 1-18z" fill="#676665"/>
<path transform="translate(670,396)" d="m0 0h259l3 2v148l-3 1-6-2-1-9-2-10h5l4 5 1-1v-80l-1-1-1 18-6 2-8-1-1-9-3 1-3 14-2 4-5-2-7 1-2 2-1 21h-1l-1-5v-37l5-23 8-20 4-8-104-1-1 2v-3h-129l1-5 20-1h-21l-3 1v-3z" fill="#434343"/>
<path transform="translate(541,416)" d="m0 0h27l15 4 11 6 8 6 7 7 4 5 3 3 3 7 3 10v23l-2 9-5 12-7 11-14 14-14 8-20 5 2 1h6l10-3h7l-1 5-15 5-10 2h-22l-18-5v-2l36 1-1-3 1-2-11-3-16-7-5-2v-2l-4-2-8-7-6-7-8-16-2-12v-15l4-16 4-9 6-9 3-1 2-4 5-4 3-3 11-7zm13 13-12 5-9 6-5 5-2 5 5 6-2 4-5 5-8-4-2 3-3 16 1 14 7 1 2 6-5 2-2 2 1 6 6 10 8 7 5-5 2-3 7 2-3 8v5l10 3h18l8-2 2-4-2-7 5-3 4 1 4 6 7-3 9-8 8-15 4-12v-18l-4-13-3-5-5 1-4 2-5-4 1-4 4-5-2-6-8-6-11-4h-10v12h-9l-5-12z" fill="#A09691"/>
<path transform="translate(287,160)" d="m0 0 117 1h285v1h5v-1h145l341 1h63l22 1v1h-19l-1 2v-2l-2 2h-4v-2h-9v2l-6 1-3-2-4 1-11 1h-37l-7-1h-11l-4 1-2-2-7 1-5-1-2 2h-419l-423-1z" fill="#414141"/>
<path transform="translate(295,572)" d="m0 0h1v12l8-1 79 1 481 2h79l166-1h170l30-1v27h-1v-22l-48 1-164 1-36 1h-35l-47-1-289-1-118 1-43-1-84-1h-56l-80-2-12-2v19h-1z" fill="#595858"/>
<path transform="translate(285,182)" d="m0 0h505l118 1h44l290 1 27 1v1l-58 1-15 1-7-1h-24-1l-8 1v-2l-5 1h-235l-2 1h-17l-5-1-2 1-3-1-67 1h-94l-390-1-2 1-37 1h-15z" fill="#424242"/>
<path transform="translate(334,171)" d="m0 0 43 1h39l118 1h301l364 1 2 3-3 1h-51l-5-1-16 1h-4-9l-2-1-8 1h-24l-4-1-5 1h-579l-203-1 1-5z" fill="#424242"/>
<path transform="translate(1027,417)" d="m0 0 3 1h2l5-1h21l16 5 14 7 7 6v2h2l8 13 4 10 3 14v14l-2 12-5 12-7 11-10 9-14 8 16-8 9-7 4-4 12-6 6-7h2l-2 7-7 10-12 13-10 7-14 7-15 4-15 1-13-2v-5l11-3 7-1-18-1-16-4-12-7-12-11-5-6-2-9-5-15-1-14 2-16 4-12 4-4 6-9 3-5 3-3h2v-2l6-2-5 5-10 13-6 11-3 5-2 15v15l1 6h2l4 13 6 9 6 6 3-1 3-4 4 1 6 5-3 9 12 5 5 1h14l4-1v-7l7-2 3 5 8-1 10-5 6-7 2-4-1-4-6-6 2-6 1-1 8 1 4 1 3-15-1-17h2l-2-12-6-12-4-3v-2l-4-2-8-8-13-6-14-3-15 1-16 5-4 1v-3l8-5h2v-2l-3-1z" fill="#DFDFDE"/>
<path transform="translate(716,151)" d="m0 0h77l474 1-5 4v-3l-14 2-11 1-5 1-17-1-6-1-4 1h-5v-1h-7l-1 1h-6l-4-1-2 1v-2h-5v2l-206 1h-310l-301-1 2-3h97l5 1 96-1h74l75-1z" fill="#434343"/>
<path transform="translate(1279,240)" d="m0 0h1l1 19v103l-3 6-3 2-164 1h-215l-320-1-29 1h-34l-149-2-5-2v-1h915l3-7 1-8z" fill="#414141"/>
<path transform="translate(457,690)" d="m0 0h707l-6 12h-469v-1l279-1 4-3 3-1 11-1 5-1 16-2-550-1z" fill="#626160"/>
<path transform="translate(1039,410)" d="m0 0h15l10 2v1h-7l17 5 10 6 7 6h-3l-16-8-14-4h-21l-10 2v-2l-3 1 1 3-10 6h2l11-3 7-2 15-1 17 4 11 6 9 9 2 1v2l4 2 5 8 3 8v9h-3l-1-2-6 1-5 1-3-6 1-3 7-4h2l-3-6-9-10-10-7-7-1-6 11-9-2-1-1v-12h-11l-12 2-10 5 1 5 3 6v5l-4 4-4-2-3-4-5 1-5 5-6 12-3 12h9l1 1v11l-12 3-2-6v-15l2-15 9-16 10-13 4-4-4 1v2l-6 5-4 7-6 9h-2l-1 6-2 6-2 16 1 14 6 17v6l-3-4-5-11-3-13v-13l3-15 4-10 12-17 7-6 16-9 7-3-1-2 5-2z" fill="#696766"/>
<path transform="translate(287,160)" d="m0 0 117 1h285v1l13 1 28 1v2l-18 1-423-1z" fill="#575655"/>
<path transform="translate(285,182)" d="m0 0h349l8 1v2h59v1l-38 1h-327l-2 1-37 1h-15z" fill="#494747"/>
<path transform="translate(549,421)" d="m0 0h18l18 6 3 3-18-1v12l-9 1-3-5-2-8-14 6-9 6-5 5-1 4 5 6-2 4-4 5-4 1-4-4h-2l-3 11-1 13v8h7l2 2v5l-6 4-5 4-5-11-3-13v-13l3-14 8-14 7-8 12-9 12-5z" fill="#494848"/>
<path transform="translate(334,171)" d="m0 0 43 1h39l118 1h42l88 1 43 1v1l-16 1-140 1h-60l-203-1 1-5z" fill="#646261"/>
<path transform="translate(801,544)" d="m0 0 64 1-1 2-40 1-23 1 10 1 34 1h81l-1-5 6 1 2 1-1 4-2 2h-259l-2-2v-3l7-3h125z" fill="#908884"/>
<path transform="translate(295,572)" d="m0 0h1v12l8-1 79 1v1l70 1 421 2-1 2h-184l-118 1-43-1-84-1h-56l-80-2-12-2v19h-1z" fill="#676665"/>
<path transform="translate(630,382)" d="m0 0h426l4 1v2h-55l12 1v1h-96l-181-2-110-2z" fill="#292626"/>
<path transform="translate(887,466)" d="m0 0h1l1 29 1-16 5-4h5l5 3 1-3v23l2 18 4 13 4 10 5 6h-18l-6-9-6-16-3-15-1-8z" fill="#605A57"/>
<path transform="translate(547,380)" d="m0 0h30l103 1v1l7 1 53 1 85 1v1l-285 1-12 2-13 4-18 10-4 2 3-5 5-5 5-3 4-4 10-5 9-2z" fill="#827C78"/>
<path transform="translate(616,457)" d="m0 0 2 3 2 11v14l-1 8-1 9-7 13-11 12-9 8-11 6-20 5 2 1h6l10-3h7l-1 5-15 5-10 2h-22l-18-5v-2l36 1-1-3 1-2-11-3-16-7-2-1 1-2 7-1 4 3 12 3h18l8-2 1-3-2-7 6-4 4 1 4 6 7-3 8-7 8-15 4-12z" fill="#F6F6F6"/>
<path transform="translate(1279,240)" d="m0 0h1l1 19v103l-3 6-3 2-164 1h-215l-285-1v-1h328l335-1 3-9 1-8z" fill="#64605E"/>
<path transform="translate(686,137)" d="m0 0h654l11 2 4 3-76-1-1-1h-495l-133-1v-1z" fill="#9E9792"/>
<path transform="translate(369,585)" d="m0 0h233l262 1h160v1l-75 1h-364l-132-1-84-1z" fill="#424242"/>
<path transform="translate(407,877)" d="m0 0h784l2 2-6 2v-1h-657l-115 1-1 3-7-6z" fill="#424242"/>
<path transform="translate(292,356)" d="m0 0h1l1 45 1-5h1v160l-1 28-3-4v-22l-1 32h-1l-1-29 1-25v-70l-1-4 2-3v-7l-1-10v-31l-2-10v-5l2 1v-11l1-4z" fill="#110D0D"/>
<path transform="translate(1121,508)" d="m0 0h2l-2 7-7 10-12 13-10 7-14 7-15 4-15 1-13-2v-5l11-3 7-1 1-2 19-4 6-2 14-8 10-9 12-6z" fill="#676564"/>
<path transform="translate(929,448)" d="m0 0 2 2v80l-2 2-4-5-6-2-4-12v-7l6-2-2-9-4-13-3-6v-8l1-5h1v5h8l5-1 1-18z" fill="#605A57"/>
<path transform="translate(507,161)" d="m0 0h182v1l13 1 28 1v2l-18 1-195-1v-1l22-1v-1l-32-1z" fill="#414141"/>
<path transform="translate(1042,379)" d="m0 0h256l10 1 1 1v12h-1v-9l-16-1h-193l-22 1 6 2-3 1-15-3-9-1-34-1 4-2z" fill="#DFA588"/>
<path transform="translate(971,691)" d="m0 0h107v1l-71 1-32 4-6 3-1 1h-86l3-3 12-3 1-1 24-2h19z" fill="#8C8480"/>
<path transform="translate(439,690)" d="m0 0 281 1v1l-62 1h-110l-16 1-19 1h-14l-3-1-5 2 1 3 2 2h-50z" fill="#B6B5B4"/>
<path transform="translate(542,408)" d="m0 0h24l16 5 10 6 9 8 7 6 6 9-1 3-4-4-7-8-5-4-14-8-15-4h-27l-9 4-10 6h-2l-2 4-5 4-7 8-4 7-5 16-1 6v15l2 15-2-2-3-13v-18l4-15 7-14 9-12 11-9h-5l4-4 11-5z" fill="#454545"/>
<path transform="translate(342,151)" d="m0 0h363l2 2-91 1h-58l-100 1-1-1h-98l-1 1h-29l-2-1v-2z" fill="#5F5D5C"/>
<path transform="translate(359,366)" d="m0 0 327 1 12 1v1l-122 1-29 1h-34l-149-2-5-2z" fill="#494948"/>
<path transform="translate(245,862)" d="m0 0 5 1 5 2h17l4-1 54-1h70l2 1v3l-2 1-79 1h-50l-7 1 6 1 135 1v1h-145l-9-2-8-5 2-1z" fill="#474646"/>
<path transform="translate(1197,212)" d="m0 0 7 1 26-1h14l12 3 1 2h-253l-47-1-2-2h87l15-1h128z" fill="#928A87"/>
<path transform="translate(1309,353)" d="m0 0h1l1 13v24l1 47v26l1-59 2 2 1 50v96l-2 6h-1l-1-44v41l-1 28h-1l-1-77z" fill="#0A0606"/>
<path transform="translate(1010,426)" d="m0 0 2 1-7 6-11 16-6 11-2 15v15l1 6h2l4 13 6 9 6 6 3-1 3-4 4 1 6 5-3 9 12 5 5 1h14l4-1v-7l7-2 3 5 8-1 10-4v3h-2v2l-10 4-18 4h-15l-14-4-10-2-11-8-9-9-2-3-2-9-5-15-1-14 2-16 4-12 4-4 6-9 3-5 3-3h2v-2z" fill="#EFEFEE"/>
<path transform="translate(234,759)" d="m0 0h176l12 1-1 4h-73l-6-1-4 1-5-1-24 1-76-1z" fill="#414141"/>
<path transform="translate(233,770)" d="m0 0h182l4 1v4h-161l-25-1z" fill="#424242"/>
<path transform="translate(796,730)" d="m0 0 11 1v2l4 2 4 8-2 9-7 7-2 1h-10l-6-3-5-4v-11l3-7 4-4z" fill="#0A0606"/>
<path transform="translate(259,822)" d="m0 0 8 2 7 5v2l3 1 1 6-4 9-7 5-9 1-6-1-4-6-1-4v-11l4-6 8-1z" fill="#0A0606"/>
<path transform="translate(233,715)" d="m0 0h182l16 1-1 4h-20l-80-1h-96z" fill="#424242"/>
<path transform="translate(325,587)" d="m0 0h22l41 1h56l84 1 48 1 127-1 104 1v1l-175 1-46 1h-31l-27-1-11-1-79-1h-63l-50-2z" fill="#8C8480"/>
<path transform="translate(1050,423)" d="m0 0 10 1 11 4 8 5 8 8 2 1v2l4 2 5 8 3 8v9h-3l-1-2-6 1-5 1-3-6 1-3 7-4h2l-3-6-9-10-10-7-7-1-6 11-9-2-1-1v-14l-1-2h2z" fill="#6B6968"/>
<path transform="translate(233,781)" d="m0 0h175l9 1-1 4h-132l-50-1z" fill="#424242"/>
<path transform="translate(511,182)" d="m0 0h123l8 1v2h59v1l-38 1h-130v-2h-23z" fill="#424242"/>
<path transform="translate(1027,417)" d="m0 0 3 1h2l5-1h21l16 5 14 7 7 6v2h2l7 11-1 2-5-2-2-1 5 11 2 8v10l-4-1v-4h2l-2-12-6-12-4-3v-2l-4-2-8-8-13-6-14-3-15 1-16 5-4 1v-3l8-5h2v-2l-3-1z" fill="#A19791"/>
<path transform="translate(233,704)" d="m0 0h61l139 1-1 4h-37l-86-1h-76z" fill="#434342"/>
<path transform="translate(902,544)" d="m0 0 1 2h22v2l2 1-1 3h-81l-34-1-10-1-22-1v-1l85-2 1-1z" fill="#8C8480"/>
<path transform="translate(233,693)" d="m0 0h184l18 1-1 4-201-1z" fill="#424242"/>
<path transform="translate(1260,589)" d="m0 0h45v1l-36 1-163 1-42 2-17 1-33-1-58-2h-87l-35-1v-1h144l47 1h45l26-1z" fill="#8C8480"/>
<path transform="translate(290,173)" d="m0 0h42l37 1h136l58 1v1l-77 1h-121l-67-1-8-2z" fill="#6E6B69"/>
<path transform="translate(438,737)" d="m0 0 290 1v1l-7 1-200 1h-77l-6-1z" fill="#424242"/>
<path transform="translate(237,737)" d="m0 0h188l1 5h-22l-74-1h-96v-3z" fill="#454444"/>
<path transform="translate(1141,487)" d="m0 0h1v7l-3 12-4 9-6 11-10 13-11 10-9 6-9 5-3-1 5-5 1-2-7 1-12 4h-6l3-2h2l1-3 6-1 8-1 4-3 4-2 14-9 4-5 5-8 3-3 5-8 7-6 2-5v-1l2-1z" fill="#0C0808"/>
<path transform="translate(233,793)" d="m0 0h181v4h-160l-21-1z" fill="#424242"/>
<path transform="translate(1337,825)" d="m0 0 1 2 11 1v2l4 2 2 5 2 7-7 7-1 2h-2v2h-10l-7-6-3-9v-3l3-3 3-6z" fill="#0A0606"/>
<path transform="translate(304,378)" d="m0 0h65l157 1 7 1-4 2-11 2v-1l-23-1h-188l-6 2-2 2-2 12h-1v-16l3-3z" fill="#DFA587"/>
<path transform="translate(907,405)" d="m0 0h21v18l-5 6-9-2-10 1-5 4-1 2h-2v-7l7-16 2-3h2z" fill="#1A1A1A"/>
<path transform="translate(233,726)" d="m0 0h184l12 1-1 4h-23l-53-1h-119z" fill="#444"/>
<path transform="translate(234,748)" d="m0 0h162l28 1-1 4h-24l-18-1h-148z" fill="#424242"/>
<path transform="translate(234,803)" d="m0 0h100l78 1v4h-86l-92-1z" fill="#424242"/>
<path transform="translate(549,421)" d="m0 0h18l18 6 3 3-18-1v12l-9 1-3-5-2-8-7 3-3-1 4-2-13 1-9 6-6 7-8 3-2 1 2-4 6-7 12-9 12-5z" fill="#666463"/>
<path transform="translate(1095,445)" d="m0 0 4 3 6 2 4 10 3 14v14l-2 12-5 12-7 11-10 9-14 8-14 4-6 1h-19l-16-4-4-3 5-1 11 4 5 1h15l22-5 14-7 9-10 8-14 5-14v-17h-2l-2 9-1 2-3-1-1-2v-7h3l-2-15-5-12z" fill="#B5B3B3"/>
<path transform="translate(273,190)" d="m0 0 3 1-4 2 7-1v1h49l-5 5-5 4h-2v-2h-80v-6h12l21 2v-2h-11l-3-2 14-1z" fill="#5F5956"/>
<path transform="translate(501,508)" d="m0 0 4 5 3 5 5 5 8 7 2 1v2l5 1 11 5 7 3 11 2 1 3-3 1v2h-38l-14-8-2-4 9 2 15 5 1-1-5-1-9-6-1-2 8 1 14 5h2v-2l-5-1-11-5-9-8-7-10-2-4z" fill="#424242"/>
<path transform="translate(369,585)" d="m0 0h233l13 1 100 1v1h-130l-132-1-84-1z" fill="#4F4B49"/>
<path transform="translate(1157,695)" d="m0 0 2 3-1 4h-469v-1l462-1 1-3z" fill="#666462"/>
<path transform="translate(740,384)" d="m0 0h204l61 1 12 1v1h-96l-181-2z" fill="#4E4D4C"/>
<path transform="translate(285,826)" d="m0 0h110l12 1v4l-120-1z" fill="#424242"/>
<path transform="translate(811,583)" d="m0 0h190l29 1v1l-150 1h-85l-20-1v-1z" fill="#E0A688"/>
<path transform="translate(273,814)" d="m0 0h31l106 1-1 5-36-1h-46l-46-1-8-3z" fill="#424242"/>
<path transform="translate(295,572)" d="m0 0h1v12l8-1 79 1v1l70 1v1l-9 1-35 1h-21l-80-2-12-2v19h-1z" fill="#625957"/>
<path transform="translate(497,477)" d="m0 0h2l5 21 7 13 2 5 4 5 8 3 5 3 6-8 5 2 2 1-1 5-2 8-5-2h-4-8v-2l-4-2-8-7-6-7-4-7-4-16z" fill="#DADAD9"/>
<path transform="translate(246,205)" d="m0 0h68l-6 7-71-1-1-5z" fill="#424242"/>
<path transform="translate(1337,159)" d="m0 0 12 1 4 10 1 7-3 3-1 3-12 2-5-5-2-4v-8z" fill="#0A0606"/>
<path transform="translate(1020,563)" d="m0 0h13l14 1v1l-17 1 11 1v1h-324v-1l264-1-1-2h16z" fill="#0A0606"/>
<path transform="translate(262,157)" d="m0 0h7l4 8v8l-3 5-2 4h-4v-2l-5 1-5-2-3-2-1-10 4-8z" fill="#0A0606"/>
<path transform="translate(1315,137)" d="m0 0h25l11 2 4 3-76-1-1-1-178-1v-1z" fill="#5D5B5A"/>
<path transform="translate(453,781)" d="m0 0h22l30 1h47l20 2v1l-10 1h-54l-80-1v-3z" fill="#424242"/>
<path transform="translate(508,461)" d="m0 0h3l1 4h2l-1 8-1 13v8h7l2 2v5l-6 4-5 4-5-11-3-13v-13l2 1 3-10z" fill="#6A6866"/>
<path transform="translate(839,398)" d="m0 0h67l3 1-1 3-35 1h-14l-3 1-11 1h-9l-3-2v-1l-34-1 3-2z" fill="#181818"/>
<path transform="translate(331,183)" d="m0 0h42l13 1h24l7-1-1 3-80 1-2 1-37 1h-15l2-5z" fill="#666563"/>
<path transform="translate(546,542)" d="m0 0 23 1-4 2-5 1 2 1h6l10-3h7l-1 5-15 5-10 2h-22l-18-5v-2l36 1-1-3 1-2-9-2z" fill="#9E958F"/>
<path transform="translate(1077,583)" d="m0 0h94l7 1h81l20 1v1h-185l-17-1z" fill="#E0A688"/>
<path transform="translate(913,458)" d="m0 0h1l-1 10-2 14v15l3 20 3 12v7l-3-1-5-11-3-15-1-11v-17l3-16 2-5z" fill="#A19792"/>
<path transform="translate(334,171)" d="m0 0 43 1h39l105 1v1l-153 1-36-1h-40l6 1 67 1v1h-77l1-5z" fill="#424242"/>
<path transform="translate(287,847)" d="m0 0 116 1v4l-117-1z" fill="#4A4948"/>
<path transform="translate(545,164)" d="m0 0h185v2l-18 1-164-1z" fill="#666563"/>
<path transform="translate(287,683)" d="m0 0h173l-2 2h-14l-4 1h-117l-36-1z" fill="#484848"/>
<path transform="translate(1308,584)" d="m0 0h1v27h-1v-22l-48 1h-97l1-2h115v-3z" fill="#676564"/>
<path transform="translate(1050,828)" d="m0 0 1 4v8l3 9 5 7 9 5 4 1h10l10-4 5-5 5-1-6 10-6 5-7 2h-10l-12-4-8-6-2-4-2-14v-10z" fill="#4E4D4C"/>
<path transform="translate(282,149)" d="m0 0h25l45 1v1l-10 1h-15v2l31 1v1l-73 1-3-4z" fill="#424242"/>
<path transform="translate(288,838)" d="m0 0h117v3h-107l-10-1z" fill="#424242"/>
<path transform="translate(278,216)" d="m0 0h12l11 1-1 3-8 3-56-1v-5z" fill="#4C4C4B"/>
<path transform="translate(1111,525)" d="m0 0v3l-7 8-9 7-10 6-13 5-13 1 1-3 20-8 18-12 7-5z" fill="#9D948F"/>
<path transform="translate(1010,426)" d="m0 0 2 1-7 6-11 16-6 11-2 15v15l1 6h2l4 14 2 6 6 8 5 6h-4l-10-10-2-3-2-9-5-15-1-14 2-16 4-12 4-4 6-9 3-5 3-3h2v-2z" fill="#A19892"/>
<path transform="translate(360,153)" d="m0 0h97l5 1 3 1v1h-107z" fill="#424242"/>
<path transform="translate(1024,586)" d="m0 0h67l39 1v1l-50 1h-57l-74-1v-1z" fill="#605A57"/>
<path transform="translate(991,457)" d="m0 0 2 4-1 8-3 12h9l1 1v11l-12 3-2-6v-15l2-15 2-2z" fill="#8D8581"/>
<path transform="translate(1007,426)" d="m0 0 2 1-3 1v2l-6 5-4 7-6 9h-2l-1 6-2 6-2 16 1 14 6 17v6l-3-4-5-11-3-13v-13l3-15 4-10 12-17 7-6z" fill="#444"/>
<path transform="translate(236,338)" d="m0 0h50v5l-1 1h-24l-26-1z" fill="#424242"/>
<path transform="translate(629,840)" d="m0 0 6 1h20v2h5l-2 4-8 4h-4v2h-11l-11-4-3-4 11 1 5 1-3-3z" fill="#76726F"/>
<path transform="translate(891,547)" d="m0 0 15 1-3 3h-41l-61-1-22-1v-1z" fill="#686766"/>
<path transform="translate(378,737)" d="m0 0h47l1 5h-22l-62-1v-2z" fill="#424242"/>
<path transform="translate(669,549)" d="m0 0 3 1 119 1 20 1v1h-141z" fill="#B7B6B6"/>
<path transform="translate(986,835)" d="m0 0h2v2h7l-3 5-10 7-5 3-6 1h-9l-2-2 4-3 3-1v-4l12-3z" fill="#4A4949"/>
<path transform="translate(1081,537)" d="m0 0 2 1-8 6-13 5-10 2v5l2 1-16-1-3-1v-5l11-3 7-1 1-2 19-4 6-2z" fill="#414141"/>
<path transform="translate(251,227)" d="m0 0 37 1-1 5-2 1-49-1v-5z" fill="#424242"/>
<path transform="translate(264,136)" d="m0 0 196 1v1l-161 1h-39z" fill="#A7A09C"/>
<path transform="translate(279,249)" d="m0 0h7v6h-50v-5z" fill="#4C4B4A"/>
<path transform="translate(279,503)" d="m0 0 6 1v5h-51l1-5z" fill="#424242"/>
<path transform="translate(243,327)" d="m0 0 43 1-1 4-4 1h-46v-5z" fill="#454444"/>
<path transform="translate(235,316)" d="m0 0h51v5h-51z" fill="#424242"/>
<path transform="translate(234,460)" d="m0 0h51v5h-50z" fill="#424242"/>
<path transform="translate(235,426)" d="m0 0 50 1v5h-45l-5-1z" fill="#424242"/>
<path transform="translate(236,272)" d="m0 0h50v5h-51z" fill="#494848"/>
<path transform="translate(234,493)" d="m0 0h50l1 5h-50z" fill="#424242"/>
<path transform="translate(238,294)" d="m0 0h48v5h-51v-4z" fill="#464646"/>
<path transform="translate(416,726)" d="m0 0 13 1-1 4h-23l-53-1-3-2 2-1z" fill="#424242"/>
<path transform="translate(554,580)" d="m0 0h17l23 1 16 2 24 1v1h-44l-2-1-85-1v-1z" fill="#E0A585"/>
<path transform="translate(236,239)" d="m0 0h48l2 1v4h-50z" fill="#424242"/>
<path transform="translate(233,615)" d="m0 0h52v5l-10-1-6 1h-37z" fill="#424242"/>
<path transform="translate(1103,508)" d="m0 0h3l-2 5-5 9-7 7-14 9-10 4-14 3h-19l-16-4-4-3 5-1 11 4 5 1h15l22-5 14-7 9-10z" fill="#B4B2B1"/>
<path transform="translate(248,305)" d="m0 0h38v5h-51v-4z" fill="#424242"/>
<path transform="translate(238,371)" d="m0 0h48v5l-38 1-13-1v-4z" fill="#424242"/>
<path transform="translate(532,531)" d="m0 0 5 2 8 3 5 1h18l8-1-2 4 4 1-5 2h-19l-10-1-16-7-2-1 1-2z" fill="#F6F6F6"/>
<path transform="translate(694,469)" d="m0 0 1 2h2l2 11v21l-4 16-1 2h-4l1-9 2-10z" fill="#A19791"/>
<path transform="translate(234,449)" d="m0 0h51l1 2-1 3h-30l-21-1z" fill="#424242"/>
<path transform="translate(929,448)" d="m0 0 2 2v57l-1 14h-1l-2-7 1-5-3-10v-7l2-6 1-16v-21z" fill="#686766"/>
<path transform="translate(235,349)" d="m0 0h36l15 1v4h-51z" fill="#424242"/>
<path transform="translate(1157,695)" d="m0 0 2 3-1 4h-193v-1l186-1 1-3z" fill="#424242"/>
<path transform="translate(234,559)" d="m0 0h41l10 1v4l-6 1-45-1z" fill="#424242"/>
<path transform="translate(925,546)" d="m0 0 6 1 2 1-1 4-1 1h-120l-20-1v-2h20l34 1h81z" fill="#A9A09B"/>
<path transform="translate(1279,240)" d="m0 0h1l1 19v99l-3 4z" fill="#5C5A59"/>
<path transform="translate(233,637)" d="m0 0h51l1 2-1 3h-51z" fill="#424242"/>
<path transform="translate(658,139)" d="m0 0h125l11 1v1l-34 1h-9l-1 2-4-2-16-1h-62l-10-1z" fill="#6D6967"/>
<path transform="translate(238,283)" d="m0 0h35l13 1v4h-51v-4z" fill="#424242"/>
<path transform="translate(600,530)" d="m0 0h3l1 5-9 8-9 5h-2v-3l-9 1-7 2-9-1 1-2 18-4 4 1h3v-2l9-6 3-3z" fill="#424242"/>
<path transform="translate(234,571)" d="m0 0h52v4l-14 1-38-1z" fill="#424242"/>
<path transform="translate(254,548)" d="m0 0 31 1 1 4h-52v-4z" fill="#424242"/>
<path transform="translate(233,659)" d="m0 0 51 1-2 4h-49z" fill="#424242"/>
<path transform="translate(233,604)" d="m0 0h52v4h-52z" fill="#424242"/>
<path transform="translate(280,415)" d="m0 0 5 1v4l-16 1-35-1 1-4z" fill="#424242"/>
<path transform="translate(290,173)" d="m0 0h42l41 1 3 3-78-1-8-2z" fill="#666563"/>
<path transform="translate(233,682)" d="m0 0h49l4 1-1 3h-52z" fill="#424242"/>
<path transform="translate(233,671)" d="m0 0h52v4h-50l-2-1z" fill="#424242"/>
<path transform="translate(234,526)" d="m0 0 51 1v4h-51z" fill="#424242"/>
<path transform="translate(249,360)" d="m0 0 37 1v4h-51v-4z" fill="#424242"/>
<path transform="translate(515,447)" d="m0 0 13 5 4 4-2 4-4 5-4 1-4-4v-2l-4 1-1-5 2-5-2-1z" fill="#1E1E1D"/>
<path transform="translate(235,394)" d="m0 0h51l-1 5-50-1z" fill="#424242"/>
<path transform="translate(284,382)" d="m0 0 2 1v4h-51v-4z" fill="#424242"/>
<path transform="translate(383,748)" d="m0 0h13l28 1-1 4h-24l-17-1v-2h-63v-1z" fill="#4E4C4C"/>
<path transform="translate(234,626)" d="m0 0h51l-1 4-29 1h-20z" fill="#424242"/>
<path transform="translate(234,593)" d="m0 0h51v4h-51z" fill="#424242"/>
<path transform="translate(234,582)" d="m0 0h51v4h-51z" fill="#424242"/>
<path transform="translate(234,538)" d="m0 0h51v4h-51z" fill="#424242"/>
<path transform="translate(234,516)" d="m0 0h51v4h-51z" fill="#424242"/>
<path transform="translate(251,261)" d="m0 0 35 1v4h-50l-1-4z" fill="#424242"/>
<path transform="translate(524,382)" d="m0 0h8v4l-5 1 1 2-13 4-18 10-4 2 3-5 5-5 5-3 4-4 10-5z" fill="#5E5D5C"/>
<path transform="translate(285,182)" d="m0 0h132l-2 2-5 1h-30l-9-1h-86z" fill="#424242"/>
<path transform="translate(801,544)" d="m0 0 64 1-1 2-40 1h-42l-9-1v-1h28z" fill="#A8A09C"/>
<path transform="translate(235,438)" d="m0 0 50 1v4h-38l-13-1z" fill="#424242"/>
<path transform="translate(546,542)" d="m0 0 23 1-4 2-5 1 2 1h6l10-3h7l-1 5-12 4-15-1-2-1-1-4 1-2-9-2z" fill="#9D948E"/>
<path transform="translate(235,482)" d="m0 0 50 1v3l-23 1h-27l-1-4z" fill="#424242"/>
<path transform="translate(593,378)" d="m0 0h26l25 1 39 1 14 1v1l-115-1 4-2z" fill="#E0A688"/>
<path transform="translate(932,213)" d="m0 0h10l12 1-4 2h-126l2-2h93z" fill="#8C8480"/>
<path transform="translate(1280,358)" d="m0 0 1 4-3 6-3 2h-148v-1l147-1 3-9z" fill="#696866"/>
<path transform="translate(641,184)" d="m0 0 60 1v1l-38 1h-80v-1l9-1z" fill="#625F5D"/>
<path transform="translate(236,194)" d="m0 0h12l20 2v1h-25v2l73-1 5-1v3l-5 2v-2h-80z" fill="#424242"/>
<path transform="translate(1037,413)" d="m0 0h20l17 5 10 6 7 6h-3l-16-8-14-4-15-1-1-2-5-1z" fill="#5E5D5C"/>
<path transform="translate(235,405)" d="m0 0h22l29 1-1 3h-50z" fill="#424242"/>
<path transform="translate(1118,412)" d="m0 0 4 2 9 13 6 12 5 19h-3l-7-21-7-11-8-10v-3z" fill="#0F0B0B"/>
<path transform="translate(920,526)" d="m0 0h5l5 5 2-1v16l-3 1-6-2-1-9z" fill="#424242"/>
<path transform="translate(1051,427)" d="m0 0 9 3 2 1-1 6-1-2h-2l2 3-1 6-3 1-8-3v-6l1-1 1-7z" fill="#1E1E1E"/>
<path transform="translate(902,544)" d="m0 0 1 2h22v1l-34 1h-67v-1l40-1 1-1z" fill="#9A908B"/>
<path transform="translate(233,648)" d="m0 0h52l-1 4-22 1-29-1z" fill="#424242"/>
<path transform="translate(287,160)" d="m0 0h2v2h52l2 2-1 1h-54z" fill="#656362"/>
<path transform="translate(497,477)" d="m0 0h2l5 21 7 13-1 2-4-3 1 6-4-4-2-4-4-16z" fill="#B6B4B4"/>
<path transform="translate(616,457)" d="m0 0 2 3 2 11v14l-1 8-1 9-7 13-2-1 2-6 5-17z" fill="#DFDFDE"/>
<path transform="translate(1027,417)" d="m0 0 3 1h2l5-1h15v1l-7 1-3 1 1 3-12 2-12 4-4 1v-3l8-5h2v-2l-3-1z" fill="#8B837F"/>
<path transform="translate(235,472)" d="m0 0h50l1 2-1 2-51-1z" fill="#424242"/>
<path transform="translate(1121,508)" d="m0 0h2l-2 7-5 8h-6l-14 8h-2l-1 3-8 2 3-3 10-7 5-5 12-6z" fill="#424242"/>
<path transform="translate(887,466)" d="m0 0h1l1 34h2l5 10v14l-1 2h-2l-4-15-2-14z" fill="#5B5958"/>
<path transform="translate(613,449)" d="m0 0 2 1 1 3 2-1 4 12v23l-2 9-2-3 1-8v-14l-2-9v10l-2-3-2-9 2-6h-2z" fill="#A49B96"/>
<path transform="translate(557,427)" d="m0 0h10l2 1v12l-9 1-3-7z" fill="#1B1B1B"/>
<path transform="translate(509,494)" d="m0 0h10l2 2v5l-6 4-5 4-4-8v-6z" fill="#484847"/>
<path transform="translate(1100,852)" d="m0 0 2 1-7 10-5 4-7 2h-10l-6-2v-1h9l7-2-1-2 10-4 5-5z" fill="#847E7B"/>
<path transform="translate(552,855)" d="m0 0 1 2-7 8-11 5-13 1-7-3v-6l6 2 2 1h15l8-4 5-5z" fill="#5A5857"/>
<path transform="translate(284,184)" d="m0 0h52l-3 1v2h-41l-5-1-1 2-2-1z" fill="#676665"/>
<path transform="translate(601,442)" d="m0 0 5 5 5 6v2l-7 3-3 1-6-5 1-4 4-5z" fill="#2A2A29"/>
<path transform="translate(1011,440)" d="m0 0h4l4 8v5l-4 4-4-2-4-5 1-7z" fill="#232323"/>
<path transform="translate(273,190)" d="m0 0 3 1-4 2 7-1v1h49l-3 3h-50l-17-2-3-2 14-1z" fill="#525151"/>
<path transform="translate(293,329)" d="m0 0 2 2v48l2 5-3 26h-1z" fill="#454141"/>
<path transform="translate(260,151)" d="m0 0 8 1 8 6 1 4-4-2-6-2-11 1-4 1v-4l5-4z" fill="#232323"/>
<path transform="translate(1011,519)" d="m0 0 4 1 6 5-3 7-4 1-6-4-2-3z" fill="#242424"/>
<path transform="translate(1107,454)" d="m0 0h2l4 9 2 6v19l-3 9-2 2 1-11v-14l-3-14z" fill="#464646"/>
<path transform="translate(347,671)" d="m0 0 40 1 1 2h-72v-1z" fill="#B7B6B6"/>
<path transform="translate(988,482)" d="m0 0h11v11l-3 1h-7l-1-3z" fill="#1D1D1C"/>
<path transform="translate(629,840)" d="m0 0 16 2v1l-5 1 3 1-1 3-6 2 1 1 9 1v1h-11l-11-4-3-4 11 1 5 1-3-3z" fill="#5A5857"/>
<path transform="translate(529,381)" d="m0 0 77 2v1l-74 1-3-2z" fill="#696665"/>
<path transform="translate(1151,693)" d="m0 0h9l1 3-1 2h-2l-1-2-5 2-1 2-4 1h-12l5-7z" fill="#5F5956"/>
<path transform="translate(955,214)" d="m0 0h79l6 1v1l-36 1-47-1z" fill="#8D8581"/>
<path transform="translate(1085,501)" d="m0 0 8 1 3 2-2 5-4 6-7-6-1-3z" fill="#2A2A29"/>
<path transform="translate(502,485)" d="m0 0h1l4 16 4 7 3-2 6 12 3 5-6-1-6-7-3-7-5-10-2-8z" fill="#9F9690"/>
<path transform="translate(536,519)" d="m0 0 5 2 2 1-1 5-2 8-5-2-5-4 2-5z" fill="#302F2E"/>
<path transform="translate(449,803)" d="m0 0h30l9 1 1 2-23 1h-15z" fill="#424242"/>
<path transform="translate(443,726)" d="m0 0 83 1-1 2h-79l-3-1z" fill="#424242"/>
<path transform="translate(501,508)" d="m0 0 4 5 3 5 5 5 8 7 2 1v2l5 1 11 5 5 2-4 1-20-8-10-9-7-10-2-4z" fill="#6D6A68"/>
<path transform="translate(689,449)" d="m0 0 4 1 4 11 2 11v10h-1l-1-11h-2l-2 2-3-16z" fill="#666462"/>
<path transform="translate(1050,423)" d="m0 0 10 1 5 2 1 2-5 12-3-3v-2h3l1-4-11-3-1 7h-1l-1-7-1-2h2z" fill="#484747"/>
<path transform="translate(561,139)" d="m0 0h28l5 2v1h-38l-23-1v-1z" fill="#181818"/>
<path transform="translate(1083,536)" d="m0 0h2l-2 4-7 5-3 3-11 4h-2v2l3 2h-11v-5l21-7 6-4z" fill="#64615F"/>
<path transform="translate(983,465)" d="m0 0h1v8l-1 13 3 14 4 10v6l-3-4-5-11-1-3v-26z" fill="#625F5E"/>
<path transform="translate(1089,459)" d="m0 0h5l3 6v2h-3v2l-5 2-4-1-2-7z" fill="#222121"/>
<path transform="translate(581,521)" d="m0 0 4 1 4 6-4 4-7 2-3-9z" fill="#252525"/>
<path transform="translate(505,391)" d="m0 0 2 1-3 3-5 3-8 7-1 2h-2l-2 6-5 5-3 1-1 2-1-4 11-12 7-7z" fill="#0E0A0A"/>
<path transform="translate(261,207)" d="m0 0 21 1h20l2 2h-68v-1z" fill="#625E5C"/>
<path transform="translate(992,510)" d="m0 0 5 5 7 8 12 12 3 2-6 1-8-6-1-4-7-7-5-9z" fill="#D0CECD"/>
<path transform="translate(342,151)" d="m0 0h16l1 3-1 1h-29l-2-1v-2z" fill="#605A57"/>
<path transform="translate(1108,877)" d="m0 0h83l2 2-6 2v-1l-80-1z" fill="#424242"/>
<path transform="translate(290,173)" d="m0 0h42v1l-5 1v1h-29l-8-2z" fill="#615C59"/>
<path transform="translate(694,469)" d="m0 0 1 2h2l2 11v21h-1l-1-13h-2l-1 4z" fill="#817B77"/>
<path transform="translate(498,454)" d="m0 0h1l-1 8-2 10v15l2 15-2-2-3-13v-18l3-12z" fill="#4A4A49"/>
<path transform="translate(987,839)" d="m0 0 4 1-2 4-9 6-2 1h-6l1-4 13-7z" fill="#A09893"/>
<path transform="translate(595,528)" d="m0 0 3 1-7 6-11 6-6-1 2-5 6-2v2l12-6z" fill="#DDDDDC"/>
<path transform="translate(269,195)" d="m0 0 13 1 5 1v1l-16 1h-28v-2l25-1z" fill="#63605E"/>
<path transform="translate(363,183)" d="m0 0h10l13 1h24l7-1-1 3h-48v-2h-5z" fill="#625E5C"/>
<path transform="translate(826,767)" d="m0 0v3l-6 5-7 4-6 2h-15l-2-2 11-1 15-4 6-3z" fill="#4D4C4C"/>
<path transform="translate(534,429)" d="m0 0 3 1-9 6-6 7-8 3-2 1 2-4 6-7 9-4z" fill="#5F5A57"/>
<path transform="translate(702,164)" d="m0 0h28v2l-18 1-39-1v-1z" fill="#625F5D"/>
<path transform="translate(1280,362)" d="m0 0h1l-1 7-4 2-16 1-41-1v-1l56-1 4-4z" fill="#8C8480"/>
<path transform="translate(1105,500)" d="m0 0 1 4-7 13-8 10-3-1 7-10z" fill="#F7F7F7"/>
<path transform="translate(917,441)" d="m0 0 2 1-1 7-3 13-2-3-3 1-1 2 2-9z" fill="#656362"/>
<path transform="translate(236,194)" d="m0 0h12l20 2v1h-25l-1 3h-6z" fill="#454444"/>
<path transform="translate(730,140)" d="m0 0h64v1l-34 1h-9l-1 2-4-2-16-1z" fill="#424242"/>
<path transform="translate(237,181)" d="m0 0 6 1 8 7 4 3-5-1-4-2h-10v-7z" fill="#4B4A49"/>
<path transform="translate(750,173)" d="m0 0 31 1v2h-36v-2z" fill="#4F4C4B"/>
<path transform="translate(1010,426)" d="m0 0 2 1-7 6-11 16-3 6-3-1v-3l4-4 6-9 3-5 3-3h2v-2z" fill="#8A827F"/>
<path transform="translate(565,421)" d="m0 0 12 3 9 4 2 2-17-1 1-2-3-1v-2l-4-1z" fill="#6B6967"/>
<path transform="translate(616,457)" d="m0 0 2 3 2 11v14l-1 6h-2l-1-19z" fill="#DEDEDD"/>
<path transform="translate(282,151)" d="m0 0 26 1v2l-2 1-19 1h-3z" fill="#5F5A58"/>
<path transform="translate(419,825)" d="m0 0h16l6 3v1h-22z" fill="#424242"/>
<path transform="translate(556,424)" d="m0 0h10l7 3-2 2-1 12-9 1 3-2h5v-12l-12-1-1 4v-3h-2v-3z" fill="#4C4B4B"/>
<path transform="translate(1223,162)" d="m0 0h20l22 1v1h-19l-1 2v-2l-2 2h-4v-2h-9v2l-6 1-3-2z" fill="#424242"/>
<path transform="translate(990,511)" d="m0 0 3 1 6 10 7 7-1 2-4-2-9-9-2-3z" fill="#A39C99"/>
<path transform="translate(283,186)" d="m0 0h53l-2 2-37 1h-15z" fill="#424242"/>
<path transform="translate(251,261)" d="m0 0 34 1-3 2h-35l1-2z" fill="#605A57"/>
<path transform="translate(650,846)" d="m0 0h6v2l-10 4h-9l-2-2 3-2z" fill="#9A918C"/>
<path transform="translate(1102,534)" d="m0 0h2l-2 4-10 7-14 7-9 1 3-2 19-8 10-8z" fill="#AFADAC"/>
<path transform="translate(1017,537)" d="m0 0 5 1 17 5 15 1v1h-19l-16-4-4-3z" fill="#AEAAA7"/>
<path transform="translate(589,138)" d="m0 0h61v1l-54 1-6 1z" fill="#525150"/>
<path transform="translate(1007,426)" d="m0 0 2 1-3 1v2l-6 5-4 7-6 9-1-3 3-7 8-10z" fill="#5F5E5D"/>
<path transform="translate(518,384)" d="m0 0 3 1-10 5h-2l-2 4-2 2 1 2-10 6h-3l7-8 6-4 4-4z" fill="#413F3F"/>
<path transform="translate(775,547)" d="m0 0h7v1l19 1v1h-27l-30-1v-1z" fill="#8C8480"/>
<path transform="translate(330,204)" d="m0 0 2 1-8 8-8 7-7 7-8 7-2 1 2-4 9-9 8-7z" fill="#AFABA9"/>
<path transform="translate(1039,410)" d="m0 0h15l10 2v1h-29v2l-7 1-1-3 5-2z" fill="#414141"/>
<path transform="translate(986,835)" d="m0 0h2v2h7l-3 5-2-2-4 1-4 2h-3l-8 2 3-3 8-4z" fill="#5B5857"/>
<path transform="translate(676,540)" d="m0 0h5l2 3 27 1v1h-37l2-4z" fill="#181818"/>
<path transform="translate(664,834)" d="m0 0v3l4-2-1 5-7 4h-7v-3l3-2z" fill="#454444"/>
<path transform="translate(555,551)" d="m0 0h8l7 1-1 2-10 2h-14l4-2 6-1z" fill="#B4B2B2"/>
<path transform="translate(1103,508)" d="m0 0h3l-2 5-5 9-7 7-1-3 9-12z" fill="#9B938F"/>
<path transform="translate(1263,223)" d="m0 0 5 2 6 7 4 2 2 3v3l-4-2-13-13z" fill="#928B88"/>
<path transform="translate(284,184)" d="m0 0h22v2l2 1h-16l-5-1-1 2-2-1z" fill="#5F5956"/>
<path transform="translate(260,151)" d="m0 0 8 1 3 3-7 1h-9l-3 4v-4l5-4z" fill="#B5B0AD"/>
<path transform="translate(576,541)" d="m0 0 2 1v3l-10 3-9-1 1-2z" fill="#424241"/>
<path transform="translate(1096,394)" d="m0 0 5 2 11 8 3 4-2 3-4-5-4-4-6-3v-2l-3-1z" fill="#100C0C"/>
<path transform="translate(531,544)" d="m0 0h8l19 2-4 2h-15l-8-3z" fill="#676563"/>
<path transform="translate(336,345)" d="m0 0 7 6 7 7 9 7-3 1-13-11-5-5z" fill="#6C6866"/>
<path transform="translate(929,448)" d="m0 0 2 2v30h-1l-1-13h-1v-18z" fill="#605A57"/>
<path transform="translate(552,855)" d="m0 0 1 2-7 8-8 4h-6v-1l-5-1v-1l11-1 8-4 5-5z" fill="#938B87"/>
<path transform="translate(1058,530)" d="m0 0 3 1 1 5-5 2h-4v-6z" fill="#2A2A29"/>
<path transform="translate(612,503)" d="m0 0 1 3-3 6-1 5-7 8-4 3 2-4 8-13z" fill="#EBEBEB"/>
<path transform="translate(789,479)" d="m0 0h2l1 7-1 7-2 2-2-4v-7z" fill="#605A57"/>
<path transform="translate(1285,197)" d="m0 0h27l-4 2-20 1-2 1-2-1z" fill="#424242"/>
<path transform="translate(546,542)" d="m0 0 23 1-4 2-5 1 3 3h-8v-3l-3-2-6-1z" fill="#847F7D"/>
<path transform="translate(989,469)" d="m0 0 1 3-1 9h9v1h-10l1 12 3 1-5 1-1-10 1-12z" fill="#6A6766"/>
<path transform="translate(513,546)" d="m0 0h7l9 2 14 1v1h-26l-4-2z" fill="#62605E"/>
<path transform="translate(510,464)" d="m0 0 4 1-1 8-3 5h-2v-7z" fill="#6A6461"/>
<path transform="translate(535,540)" d="m0 0 22 4-2 2h-9l-6-2-4-1z" fill="#303030"/>
<path transform="translate(511,513)" d="m0 0h3 3l6 10-6-1-6-7z" fill="#B7B6B6"/>
<path transform="translate(913,458)" d="m0 0h1l-1 10-1 7h-1v-5h-2l-1-5 2-5z" fill="#8C8480"/>
<path transform="translate(629,840)" d="m0 0 16 2v1l-5 1 3 1-1 3h-8l3-1-3-3z" fill="#4A4949"/>
<path transform="translate(771,480)" d="m0 0 3 1v11l-3 3-1-2v-9z" fill="#605A57"/>
<path transform="translate(541,558)" d="m0 0h10l-1 5-9 1-4-4h6z" fill="#0A0606"/>
<path transform="translate(585,541)" d="m0 0h7l-1 4-5 3h-2v-3l-5-1 3-2z" fill="#646261"/>
<path transform="translate(595,531)" d="m0 0 2 1-8 7-4 1v2l-8 1 3-3 11-6z" fill="#262625"/>
<path transform="translate(1035,414)" d="m0 0h9l-1 3-13 3-3-1 3-1 1-3z" fill="#6C6A69"/>
<path transform="translate(992,510)" d="m0 0 5 5 7 8 1 4-4-2-5-6-4-7z" fill="#EBEBEA"/>
<path transform="translate(692,511)" d="m0 0 4 1-1 7-1 2h-4l1-9z" fill="#8C8480"/>
<path transform="translate(613,449)" d="m0 0 2 1 2 12v10l-2-3-2-9 2-6h-2z" fill="#BEBDBD"/>
<path transform="translate(1093,543)" d="m0 0 2 1-3 5-7 3h-5v-2l12-6z" fill="#212121"/>
<path transform="translate(1110,522)" d="m0 0h5l-2 4-10 3-4 2v-3z" fill="#656261"/>
<path transform="translate(1098,455)" d="m0 0h2l3 11v10l-4-1v-4h2l-2-12z" fill="#9D948F"/>
<path transform="translate(1100,852)" d="m0 0 2 1-5 5-7 6h-2l2-5 7-6z" fill="#595756"/>
<path transform="translate(551,425)" d="m0 0h3v3l2 1-7 3-3-1 4-2-12 1-1-2z" fill="#66615E"/>
<path transform="translate(826,767)" d="m0 0v3l-6 5-7 4-4 1h-7v-1l12-2v-2l8-4z" fill="#787371"/>
<path transform="translate(1078,551)" d="m0 0 6 1v2l-10 3h-6l3-2h2l1-3z" fill="#100D0D"/>
<path transform="translate(689,518)" d="m0 0 1 3h4l1-2-1 5-3 4h-4z" fill="#656362"/>
<path transform="translate(913,541)" d="m0 0 5 1 3 3h-18v-2l9-1z" fill="#424242"/>
<path transform="translate(1099,854)" d="m0 0 1 2-6 8-7 4-4-1 3-2h4v-2l7-6z" fill="#BAB7B5"/>
<path transform="translate(1109,492)" d="m0 0h2l-1 8-4 8h-2l3-10z" fill="#B1AEAC"/>
<path transform="translate(1338,823)" d="m0 0h8l4 2v1l-12 1-3-2z" fill="#96918E"/>
<path transform="translate(1095,525)" d="m0 0m-1 1m-1 1m-1 1m-2 1 2 1-4 4-13 7-2-1 15-9z" fill="#232322"/>
<path transform="translate(510,457)" d="m0 0h4l1 3 3 1-6 5h-1v-5h-2z" fill="#565351"/>
<path transform="translate(494,474)" d="m0 0h1l2 21 1 7-2-2-3-12z" fill="#5B5958"/>
<path transform="translate(251,261)" d="m0 0 14 1-1 2h-17l1-2z" fill="#5E5956"/>
<path transform="translate(1338,154)" d="m0 0 2 1-9 6-5 5 1-5 6-6z" fill="#948E8B"/>
<path transform="translate(1012,533)" d="m0 0h5l10 5 6 2v1l-8-1-13-6z" fill="#EBEBEA"/>
<path transform="translate(1080,530)" d="m0 0 2 2-3 1v2l-7 2-4-1z" fill="#F8F8F8"/>
<path transform="translate(600,433)" d="m0 0 4 1 7 8 1 5-4-4-7-8z" fill="#B5B2B1"/>
<path transform="translate(595,528)" d="m0 0 3 1-7 6-5 2v-3z" fill="#D3D2D0"/>
<path transform="translate(1251,194)" d="m0 0h11l3 3h-9l-7-1z" fill="#0A0606"/>
<path transform="translate(1275,152)" d="m0 0 11 1-1 3h-10z" fill="#424242"/>
<path transform="translate(1009,440)" d="m0 0 2 1-3 4-1 5-6 1 4-7z" fill="#474646"/>
<path transform="translate(1007,426)" d="m0 0 2 1-3 1v2l-8 7-3 2 2-5 8-7z" fill="#424242"/>
<path transform="translate(363,183)" d="m0 0h10l7 1v2h-12v-2h-5z" fill="#635F5D"/>
<path transform="translate(533,162)" d="m0 0h17v1l-7 1v1h-11z" fill="#635F5C"/>
<path transform="translate(620,475)" d="m0 0h1v19l-2 2-1-5z" fill="#B1AEAE"/>
<path transform="translate(505,391)" d="m0 0 2 1-3 3-5 3-5 4v-4z" fill="#191717"/>
<path transform="translate(269,155)" d="m0 0 5 1 3 3v3l-4-2-7-3z" fill="#5A5857"/>
<path transform="translate(1103,521)" d="m0 0m-1 1m-1 1m-1 1m-1 1m-1 1m-1 1m-1 1m-2 1h2v2h-2l-1 3-8 2 3-3z" fill="#494847"/>
<path transform="translate(983,465)" d="m0 0h1v8l-2 13h-1v-14z" fill="#6B6866"/>
<path transform="translate(1138,445)" d="m0 0 2 4 2 9h-3l-3-9z" fill="#141111"/>
<path transform="translate(1079,433)" d="m0 0 4 2 10 9-1 2-3-2v-2l-4-2z" fill="#8C8480"/>
<path transform="translate(589,138)" d="m0 0h20v1l-13 1-6 1z" fill="#4E4C4A"/>
<path transform="translate(621,845)" d="m0 0 11 1-4 4-5-2z" fill="#424242"/>
<path transform="translate(505,465)" d="m0 0h1l-1 8-1 11h-1v-18z" fill="#484747"/>
<path transform="translate(363,174)" d="m0 0h10l3 3h-11l-3-2z" fill="#5A5857"/>
<path transform="translate(1359,196)" d="m0 0h8l-1 2-5 1h-9l1-2z" fill="#424242"/>
<path transform="translate(1181,877)" d="m0 0h10l2 2-6 2v-1l-7-1z" fill="#474646"/>
<path transform="translate(615,770)" d="m0 0h6l1 2-1 3h-5z" fill="#424242"/>
<path transform="translate(1090,527)" d="m0 0v3l-10 7-3 1 2-4 9-5z" fill="#B0ADAC"/>
<path transform="translate(988,454)" d="m0 0h2l-1 4-2 7-3 1 2-9z" fill="#9E948F"/>
<path transform="translate(298,184)" d="m0 0h8v2l2 1h-11z" fill="#605A57"/>
<path transform="translate(1309,587)" d="m0 0 2 3-1 7h2v6h-3z" fill="#0A0606"/>
<path transform="translate(915,525)" d="m0 0 2 4v7l-3-1-2-5h3z" fill="#8C8480"/>
<path transform="translate(331,183)" d="m0 0 13 1 1 2h-12z" fill="#5C5755"/>
<path transform="translate(296,672)" d="m0 0h12l-2 2-11 1z" fill="#ACA6A3"/>
<path transform="translate(506,498)" d="m0 0 5 5 2 4-3 2-4-8z" fill="#646260"/>
<path transform="translate(1010,426)" d="m0 0 2 1-12 10v-3l4-4h2v-2z" fill="#7F7976"/>
<path transform="translate(1096,394)" d="m0 0 5 2 6 4-4 1-4-2v-2l-3-1z" fill="#131010"/>
</svg>
